<svg width="204" height="46" viewBox="0 0 204 46" fill="none" xmlns="http://www.w3.org/2000/svg">
<path d="M1.2161 44.84C0.46943 44.84 0.0960968 44.448 0.0960968 43.664V1.944C0.0960968 1.23466 0.46943 0.879998 1.2161 0.879998H10.6801C11.4641 0.879998 11.8561 1.23466 11.8561 1.944V33.92H25.3521C26.0614 33.92 26.4161 34.2933 26.4161 35.04V43.664C26.4161 44.448 26.0614 44.84 25.3521 44.84H1.2161ZM65.6874 29.216C65.6874 32.3893 65.2581 35.04 64.3994 37.168C63.5781 39.2587 62.4021 40.9387 60.8714 42.208C59.3781 43.4773 57.5674 44.3733 55.4394 44.896C53.3487 45.4187 51.0527 45.68 48.5514 45.68C46.0501 45.68 43.7541 45.4187 41.6634 44.896C39.5727 44.3733 37.7621 43.4773 36.2314 42.208C34.7381 40.9387 33.5621 39.2587 32.7034 37.168C31.8821 35.04 31.4714 32.3893 31.4714 29.216V2C31.4714 1.25333 31.8447 0.879998 32.5914 0.879998H41.6634C42.4474 0.879998 42.8394 1.25333 42.8394 2V29.608C42.8394 31.9227 43.2687 33.6213 44.1274 34.704C45.0234 35.7493 46.4981 36.272 48.5514 36.272C50.6047 36.272 52.0794 35.7493 52.9754 34.704C53.8714 33.6213 54.3194 31.9227 54.3194 29.608V2C54.3194 1.25333 54.6927 0.879998 55.4394 0.879998H64.5114C65.2954 0.879998 65.6874 1.25333 65.6874 2V29.216ZM107.18 29.72C107.18 32.7813 106.751 35.3387 105.892 37.392C105.033 39.4453 103.82 41.088 102.252 42.32C100.721 43.552 98.8919 44.4107 96.7639 44.896C94.6359 45.4187 92.3212 45.68 89.8199 45.68C87.2439 45.68 84.8919 45.4187 82.7639 44.896C80.6359 44.3733 78.7879 43.4773 77.2199 42.208C75.6892 40.9387 74.4946 39.2587 73.6359 37.168C72.8146 35.04 72.4039 32.3893 72.4039 29.216V16.56C72.4039 13.3867 72.8146 10.736 73.6359 8.608C74.4946 6.48 75.6892 4.78133 77.2199 3.512C78.7879 2.24266 80.6359 1.34667 82.7639 0.823998C84.8919 0.301332 87.2439 0.0399985 89.8199 0.0399985C92.3959 0.0399985 94.7479 0.319998 96.8759 0.879998C99.0039 1.40266 100.833 2.29866 102.364 3.568C103.895 4.8 105.071 6.44267 105.892 8.496C106.751 10.512 107.18 12.9947 107.18 15.944V16.448C107.143 17.1947 106.769 17.568 106.06 17.568H96.9319C96.1479 17.568 95.7559 17.176 95.7559 16.392V15.552C95.7559 13.6853 95.3079 12.2107 94.4119 11.128C93.5532 10.008 92.0226 9.448 89.8199 9.448C87.6172 9.448 86.0492 9.98933 85.1159 11.072C84.2199 12.1173 83.7719 13.7973 83.7719 16.112V29.608C83.7719 31.9227 84.2199 33.6213 85.1159 34.704C86.0492 35.7493 87.6172 36.272 89.8199 36.272C92.0226 36.272 93.5532 35.7493 94.4119 34.704C95.3079 33.6213 95.7559 31.9227 95.7559 29.608V28.712C95.7559 27.928 96.1479 27.536 96.9319 27.536H106.06C106.807 27.536 107.18 27.928 107.18 28.712V29.72ZM125.39 43.664C125.39 44.448 124.998 44.84 124.214 44.84H115.03C114.283 44.84 113.91 44.448 113.91 43.664V1.944C113.91 1.23466 114.283 0.879998 115.03 0.879998H124.214C124.998 0.879998 125.39 1.23466 125.39 1.944V16.672L134.518 1.776C134.704 1.47733 134.891 1.25333 135.078 1.104C135.264 0.954665 135.507 0.879998 135.806 0.879998H147.062C147.472 0.879998 147.752 1.01066 147.902 1.272C148.088 1.496 148.051 1.81333 147.79 2.224L125.39 35.376V43.664ZM137.71 44.84C137 44.84 136.571 44.5413 136.422 43.944L130.374 32.464C130.262 32.24 130.187 31.9973 130.15 31.736C130.15 31.4373 130.243 31.1573 130.43 30.896L135.974 22.72C136.496 21.8987 137 21.8987 137.486 22.72L149.694 43.552C150.067 44.4107 149.787 44.84 148.854 44.84H137.71ZM166.67 43.664C166.67 44.448 166.297 44.84 165.55 44.84H156.03C155.283 44.84 154.91 44.448 154.91 43.664V1.944C154.91 1.23466 155.283 0.879998 156.03 0.879998H165.494C166.278 0.879998 166.67 1.23466 166.67 1.944V43.664ZM193.806 43.776C193.806 44.4853 193.414 44.84 192.63 44.84H183.166C182.419 44.84 182.046 44.4853 182.046 43.776V14.32C182.046 13.6107 182.419 13.256 183.166 13.256H192.63C193.414 13.256 193.806 13.6107 193.806 14.32V43.776ZM173.31 11.576C172.6 11.576 172.246 11.2027 172.246 10.456V2.056C172.246 1.272 172.6 0.879998 173.31 0.879998H202.542C203.251 0.879998 203.606 1.272 203.606 2.056V10.456C203.606 11.2027 203.251 11.576 202.542 11.576H173.31Z" fill="url(#paint0_linear_414_8299)"/>
<defs>
<linearGradient id="paint0_linear_414_8299" x1="2.77778" y1="-14.7014" x2="70.4205" y2="132.303" gradientUnits="userSpaceOnUse">
<stop stop-color="#B583F6"/>
<stop offset="1" stop-color="#6F9EFD"/>
</linearGradient>
</defs>
</svg>
