<svg width="24" height="24" viewBox="0 0 24 24" fill="none" xmlns="http://www.w3.org/2000/svg">
<g clip-path="url(#clip0_651_13535)">
<rect width="24" height="24" rx="6" fill="#2F56A5"/>
<path d="M19.3694 26.2601C14.7723 28.0374 9.01811 27.3468 5.67075 23.7557C3.83602 21.7882 2.63262 19.7946 2.32597 17.1313C2.06056 14.8015 2.14302 12.5473 3.24334 10.4703C5.27392 6.64203 9.60048 4.88818 14.1796 5.2869C18.5242 5.66477 22.691 9.33404 23.6058 13.5636C23.8068 14.494 23.7346 15.8856 23.7346 16.7794C23.7346 17.5951 24.5721 17.7801 26.4326 17.371C26.9531 17.2563 28.0535 16.4615 28.2648 16.6882C28.6616 17.1104 27.3319 19.7764 26.9763 20.2663C24.804 23.2684 22.8636 24.9102 19.3668 26.2627L19.3694 26.2601Z" fill="url(#paint0_radial_651_13535)"/>
<path d="M4.91312 15.2725C5.17641 15.2725 5.38984 15.0404 5.38984 14.7539C5.38984 14.4675 5.17641 14.2354 4.91312 14.2354C4.64984 14.2354 4.4364 14.4675 4.4364 14.7539C4.4364 15.0404 4.64984 15.2725 4.91312 15.2725Z" fill="#5C8ECF"/>
<path d="M7.38956 15.2725C7.65285 15.2725 7.86628 15.0404 7.86628 14.7539C7.86628 14.4675 7.65285 14.2354 7.38956 14.2354C7.12628 14.2354 6.91284 14.4675 6.91284 14.7539C6.91284 15.0404 7.12628 15.2725 7.38956 15.2725Z" fill="#5C8ECF"/>
<path d="M7.94089 5.77911C7.39717 3.23824 8.65468 0.410711 10.894 -0.863632C13.1333 -2.13797 16.1766 -1.7575 18.0422 0.0328383C19.9079 1.82317 20.4439 4.87482 19.3023 7.2046C19.5832 5.74262 21.0726 4.64028 22.5389 4.77318C24.0051 4.90609 25.2678 6.22213 25.3889 7.70756C25.51 9.19299 24.5076 10.6836 23.1109 11.1527" stroke="#5C8ECF" stroke-width="1.17" stroke-linecap="round" stroke-linejoin="round"/>
<path d="M5.79171 16.002L3.89771 16.9115C4.50327 17.2971 5.10626 17.6802 5.71182 18.0659" stroke="#5C8ECF" stroke-width="1.01538" stroke-linecap="round" stroke-linejoin="round"/>
</g>
<defs>
<radialGradient id="paint0_radial_651_13535" cx="0" cy="0" r="1" gradientUnits="userSpaceOnUse" gradientTransform="translate(15.2685 16.2161) rotate(90) scale(10.9847 13.0694)">
<stop stop-color="#DBE7E4"/>
<stop offset="1" stop-color="#C0E0DE"/>
</radialGradient>
<clipPath id="clip0_651_13535">
<rect width="24" height="24" rx="6" fill="white"/>
</clipPath>
</defs>
</svg>
