<svg width="24" height="24" viewBox="0 0 24 24" fill="none" xmlns="http://www.w3.org/2000/svg">
<g clip-path="url(#clip0_651_13417)">
<rect width="24" height="24" rx="6" fill="#2F56A5"/>
<g style="mix-blend-mode:multiply" filter="url(#filter0_f_651_13417)">
<ellipse cx="17.8979" cy="24.9798" rx="18.8776" ry="1.53061" fill="#6F85B3"/>
</g>
<path d="M12.7699 22.5583C12.6389 22.8891 12.5054 23.2246 12.4744 23.5768C12.4435 23.929 12.5269 24.3121 12.7771 24.5619C13.1155 24.9022 13.6516 24.9236 14.133 24.926C14.6501 24.926 15.1696 24.926 15.6867 24.926C16.2134 24.926 16.7901 24.9117 17.1952 24.5762C17.5479 24.2835 17.6956 23.8005 17.6837 23.3412C17.6742 22.9867 17.5836 22.6416 17.4764 22.3037" fill="url(#paint0_radial_651_13417)"/>
<path d="M19.1826 22.3354C19.0515 22.6662 18.9657 23.1183 18.9348 23.4729C18.9038 23.8274 18.9872 24.2082 19.2374 24.458C19.5758 24.7983 20.112 24.8197 20.5933 24.8221C21.1105 24.8221 21.63 24.8221 22.1471 24.8221C22.6737 24.8221 23.2504 24.8078 23.6555 24.4723C24.0082 24.1796 24.1559 23.6966 24.144 23.2373C24.1345 22.8827 24.0702 22.0713 23.9629 21.7334" fill="url(#paint1_radial_651_13417)"/>
<path d="M9.25024 3.39091C7.60596 3.64077 5.88304 4.01437 4.66293 5.1423C2.80656 6.86036 2.71124 9.71587 2.79226 12.2406C2.86852 14.6107 3.04248 17.1378 4.46752 19.0344C5.79248 20.7976 7.98247 21.6947 10.1367 22.1707C14.0139 23.0297 18.0412 22.7846 22.0042 22.5347C24.1727 22.3991 26.4485 22.2278 28.2691 21.0451C30.0063 19.9172 31.1049 17.9754 31.5434 15.9504C32.2464 12.6975 31.3098 9.13525 29.0984 6.64382C24.4515 1.40871 15.427 2.44622 9.25024 3.39091Z" fill="url(#paint2_radial_651_13417)"/>
<path d="M8.38275 13.0145C8.62623 13.0145 8.82361 12.8025 8.82361 12.5409C8.82361 12.2794 8.62623 12.0674 8.38275 12.0674C8.13927 12.0674 7.94189 12.2794 7.94189 12.5409C7.94189 12.8025 8.13927 13.0145 8.38275 13.0145Z" fill="#5C62CF"/>
<path d="M10.6729 13.0145C10.9164 13.0145 11.1138 12.8025 11.1138 12.5409C11.1138 12.2794 10.9164 12.0674 10.6729 12.0674C10.4294 12.0674 10.2321 12.2794 10.2321 12.5409C10.2321 12.8025 10.4294 13.0145 10.6729 13.0145Z" fill="#5C62CF"/>
<path d="M7.65604 14.3849C6.30725 14.6276 4.94655 15.1416 4.03385 16.1601C3.12115 17.1786 2.78277 18.7943 3.52388 19.946C4.33173 21.2001 6.05227 21.4951 7.54165 21.369C9.03104 21.2429 10.5347 20.8241 11.9979 21.1263C13.666 21.4714 15.4461 22.3732 16.6829 20.6218C17.3859 19.6272 17.4622 17.8734 16.845 16.8097C15.3103 14.166 10.213 13.9233 7.65604 14.3849Z" stroke="#5C62CF" stroke-width="1.17" stroke-linecap="round" stroke-linejoin="round"/>
<path d="M18.3248 8.35059C20.4671 9.21676 22.8311 9.52372 25.1236 9.23341C24.8948 10.7302 23.7128 12.039 22.2449 12.4173C20.7769 12.7957 19.1064 12.2269 18.1794 11.03" stroke="#5C62CF" stroke-width="1.17" stroke-linecap="round" stroke-linejoin="round"/>
<path d="M2.88754 7.55566C1.43866 8.06728 -0.105532 8.31475 -1.64258 8.2862C-1.38998 9.16189 -0.734648 9.91384 0.0994079 10.2827C0.933464 10.6515 1.92957 10.6372 2.75171 10.2398" stroke="#5C62CF" stroke-width="1.17" stroke-linecap="round" stroke-linejoin="round"/>
<path d="M16.8401 6.0371C16.0347 4.57128 15.4389 2.99123 15.0791 1.35645C14.2069 2.77468 13.9948 4.58079 14.5191 6.16084" stroke="#5C62CF" stroke-width="1.17" stroke-linecap="round" stroke-linejoin="round"/>
<path d="M7.06739 5.7755C6.55028 4.58094 6.03316 3.38401 5.51605 2.18945C4.60097 3.54582 4.32692 5.31148 4.78684 6.87963" stroke="#5C62CF" stroke-width="1.17" stroke-linecap="round" stroke-linejoin="round"/>
<path d="M7.38425 16.7402C7.10544 17.6659 7.08399 18.6677 7.31991 19.6053" stroke="#5C62CF" stroke-width="1.17" stroke-linecap="round" stroke-linejoin="round"/>
<path d="M11.6571 16.7363C11.3115 17.7524 11.2591 18.8661 11.5046 19.9131" stroke="#5C62CF" stroke-width="1.17" stroke-linecap="round" stroke-linejoin="round"/>
</g>
<defs>
<filter id="filter0_f_651_13417" x="-3.78574" y="20.6431" width="43.3674" height="8.67377" filterUnits="userSpaceOnUse" color-interpolation-filters="sRGB">
<feFlood flood-opacity="0" result="BackgroundImageFix"/>
<feBlend mode="normal" in="SourceGraphic" in2="BackgroundImageFix" result="shape"/>
<feGaussianBlur stdDeviation="1.40306" result="effect1_foregroundBlur_651_13417"/>
</filter>
<radialGradient id="paint0_radial_651_13417" cx="0" cy="0" r="1" gradientUnits="userSpaceOnUse" gradientTransform="translate(15.0763 23.6149) rotate(90) scale(1.31116 2.60805)">
<stop stop-color="#B677EE"/>
<stop offset="1" stop-color="#B1ABF9"/>
</radialGradient>
<radialGradient id="paint1_radial_651_13417" cx="0" cy="0" r="1" gradientUnits="userSpaceOnUse" gradientTransform="translate(21.5366 23.2778) rotate(90) scale(1.54436 2.60805)">
<stop stop-color="#B677EE"/>
<stop offset="1" stop-color="#B1ABF9"/>
</radialGradient>
<radialGradient id="paint2_radial_651_13417" cx="0" cy="0" r="1" gradientUnits="userSpaceOnUse" gradientTransform="translate(17.2731 12.6949) rotate(90) scale(10.0748 14.5001)">
<stop stop-color="#C996ED"/>
<stop offset="1" stop-color="#D4D2FC"/>
</radialGradient>
<clipPath id="clip0_651_13417">
<rect width="24" height="24" rx="6" fill="white"/>
</clipPath>
</defs>
</svg>
