<svg width="24" height="24" viewBox="0 0 24 24" fill="none" xmlns="http://www.w3.org/2000/svg">
<g clip-path="url(#clip0_651_13545)">
<rect width="24" height="24" rx="6" fill="#2F56A5"/>
<path d="M17.4306 20.5156C17.2592 20.9468 16.77 22.1936 16.7295 22.6558C16.689 23.1179 16.7981 23.6142 17.1252 23.9399C17.5677 24.3834 18.2689 24.4113 18.8983 24.4144C19.5745 24.4144 20.2538 24.4144 20.93 24.4144C21.6187 24.4144 22.3728 24.3958 22.9026 23.9585C23.3637 23.577 23.5569 22.9473 23.5414 22.3487C23.5351 22.0944 23.4946 21.8431 23.4385 21.595" fill="url(#paint0_radial_651_13545)"/>
<path d="M4.73237 9.8584C3.38308 10.0259 2.39215 10.792 1.70349 11.9613C1.01482 13.1306 1.03975 14.7218 1.89357 15.7764C2.74739 16.8309 4.159 17.1814 5.27769 16.4153" stroke="#CF6F5C" stroke-width="1.17" stroke-linecap="round" stroke-linejoin="round"/>
<path d="M14.9004 4.27492C10.5066 3.24207 8.04179 4.55718 6.22197 7.05711C4.40215 9.55704 3.74776 13.3162 5.21546 16.0953C6.98854 19.4513 10.9117 20.2329 14.3488 20.6765C16.957 21.0146 19.5683 21.3526 22.1765 21.6907C25.9689 22.1808 30.1227 22.584 33.3073 20.205C36.5886 17.7547 37.8787 12.423 36.1555 8.42494C34.2858 4.07642 30.8269 2.61864 26.8414 2.68998C22.2794 2.77062 19.4219 5.33879 14.9004 4.27492Z" fill="url(#paint1_radial_651_13545)"/>
<path d="M7.82673 12.337C8.14511 12.337 8.40321 12.0607 8.40321 11.7198C8.40321 11.3789 8.14511 11.1025 7.82673 11.1025C7.50834 11.1025 7.25024 11.3789 7.25024 11.7198C7.25024 12.0607 7.50834 12.337 7.82673 12.337Z" fill="#CF6F5C"/>
<path d="M10.8213 12.337C11.1397 12.337 11.3978 12.0607 11.3978 11.7198C11.3978 11.3789 11.1397 11.1025 10.8213 11.1025C10.5029 11.1025 10.2448 11.3789 10.2448 11.7198C10.2448 12.0607 10.5029 12.337 10.8213 12.337Z" fill="#CF6F5C"/>
<path d="M19.2817 8.81348C21.2105 10.3116 23.1394 11.8128 25.0652 13.3109C25.8193 13.8971 26.617 14.5515 26.8507 15.4727C27.0657 16.3226 26.7261 17.2531 26.1122 17.8827C25.4983 18.5124 24.6445 18.869 23.7782 19.0272C21.8088 19.3901 19.6805 18.7667 18.2284 17.3958C16.7763 16.0248 16.0284 13.9467 16.2839 11.9679" stroke="#CF6F5C" stroke-width="1.17" stroke-linecap="round" stroke-linejoin="round"/>
<path d="M8.89243 14.8275L8.85192 16.3783M10.2978 13.8194C10.2978 14.1997 9.72022 14.508 9.00773 14.508C8.29524 14.508 7.71765 14.1997 7.71765 13.8194C7.71765 13.4391 8.29524 13.1309 9.00773 13.1309C9.72022 13.1309 10.2978 13.4391 10.2978 13.8194Z" stroke="#CF6F5C" stroke-width="1.5" stroke-linecap="round" stroke-linejoin="round"/>
</g>
<defs>
<radialGradient id="paint0_radial_651_13545" cx="0" cy="0" r="1" gradientUnits="userSpaceOnUse" gradientTransform="translate(20.1318 22.465) rotate(90) scale(1.94939 3.4104)">
<stop stop-color="#E6A680"/>
<stop offset="1" stop-color="#DCB69F"/>
</radialGradient>
<radialGradient id="paint1_radial_651_13545" cx="0" cy="0" r="1" gradientUnits="userSpaceOnUse" gradientTransform="translate(20.6647 12.3761) rotate(90) scale(9.68859 16.2557)">
<stop stop-color="#F1CFBA"/>
<stop offset="1" stop-color="#EDDCD2"/>
</radialGradient>
<clipPath id="clip0_651_13545">
<rect width="24" height="24" rx="6" fill="white"/>
</clipPath>
</defs>
</svg>
