<svg width="24" height="24" viewBox="0 0 24 24" fill="none" xmlns="http://www.w3.org/2000/svg">
<g clip-path="url(#clip0_651_13465)">
<rect width="24" height="24" rx="6" fill="#2F56A5"/>
<path d="M14.0698 18.7943L21.0931 18.667L23.4237 23.2634L20.0384 31.9412L23.757 35.6206C21.5644 35.6727 18.8257 35.719 16.7337 35.0536C14.6416 34.3883 12.6904 32.8755 12.0869 30.7552C11.7162 29.4478 11.8915 28.0188 12.4346 26.775C12.9777 25.5312 13.8657 24.244 14.6962 23.0233L14.0698 18.7943Z" fill="url(#paint0_linear_651_13465)"/>
<path d="M8.01188 24.3912C4.77033 23.3817 2.84782 19.6618 3.22428 16.2658C3.60073 12.8728 5.87958 9.91656 8.69007 8.00454C13.4403 4.77349 20.1389 4.32514 24.8777 7.57065C27.7974 9.57234 29.8176 12.8526 30.2975 16.3758C30.7774 19.899 29.7084 23.6044 27.4324 26.3235C26.3864 27.5731 25.1104 28.6086 24.0673 29.8611C23.4236 30.6363 22.846 31.5909 22.9724 32.5918C23.1247 33.7951 24.1966 34.391 25.3777 34.6195C26.5588 34.848 27.5502 34.8769 28.7543 34.8856C30.059 34.8943 31.4125 34.7178 32.6166 34.5327C29.1193 35.8373 25.3001 36.2509 21.6103 35.7274C20.5355 35.574 19.4033 35.3079 18.6417 34.5298C17.4233 33.2889 17.6043 31.2091 18.3199 29.621C19.1418 27.7987 20.6562 26.1846 20.9924 24.1598C21.2424 22.6498 20.5527 20.6134 18.7394 21.03C17.156 21.3945 15.7709 22.8523 14.3254 23.5668C12.3914 24.5214 10.1183 25.0449 8.009 24.3883L8.01188 24.3912Z" fill="url(#paint1_radial_651_13465)"/>
<path d="M19.4608 5.42714C19.5384 3.83331 20.5931 2.37255 21.9983 1.63782C23.4035 0.903097 25.1105 0.856815 26.6221 1.33699C28.7946 2.02543 30.6194 3.84778 31.1597 6.07798C31.6999 8.3053 30.8464 10.8537 28.9785 12.1698C29.8062 11.5335 31.0275 11.4496 31.9068 12.0078C32.7862 12.5661 33.2374 13.7521 32.904 14.7471C32.5707 15.7422 31.4614 16.4162 30.4413 16.2079C31.6655 16.0025 32.9299 17.1191 32.8868 18.3687C32.8437 19.6183 31.5017 20.6423 30.2947 20.3501" stroke="#5C8ECF" stroke-width="1.17" stroke-linecap="round" stroke-linejoin="round"/>
<path d="M12.923 10.0316C11.6039 7.66835 10.8367 4.99557 10.6987 2.28809" stroke="#5C8ECF" stroke-width="1.17" stroke-linecap="round" stroke-linejoin="round"/>
<path d="M8.10399 11.1426C6.37976 9.63848 5.09234 7.6339 4.43713 5.43262" stroke="#5C8ECF" stroke-width="1.17" stroke-linecap="round" stroke-linejoin="round"/>
<path d="M11.0208 4.71253L13.7651 2.39844" stroke="#5C8ECF" stroke-width="1.17" stroke-linecap="round" stroke-linejoin="round"/>
<path d="M5.47445 8.07422L2.4082 8.52547" stroke="#5C8ECF" stroke-width="1.17" stroke-linecap="round" stroke-linejoin="round"/>
<path d="M4.39108 19.775C4.48591 20.4548 5.02905 21.0391 5.69 21.2155C6.35095 21.392 7.08949 21.1692 7.57228 20.6833C8.39991 21.3197 9.61261 21.4932 10.4948 20.9407C11.3771 20.3882 11.7363 19.0547 11.1127 18.2159C10.6644 17.6142 9.85975 17.3828 9.10971 17.3828C7.32514 17.3857 7.9085 19.3064 7.1326 18.6729C6.10956 17.837 4.20429 18.4444 4.39108 19.7779V19.775Z" stroke="#5C8ECF" stroke-width="1.17" stroke-linecap="round" stroke-linejoin="round"/>
<path d="M11.5409 17.0003C11.9375 16.364 12.722 16.0024 13.4605 16.1123C13.9491 16.1846 14.3887 16.445 14.8227 16.6851C15.2566 16.9251 15.7135 17.1594 16.2078 17.1739C16.7021 17.1884 17.2395 16.928 17.3889 16.4536" stroke="#5C8ECF" stroke-width="1.17" stroke-linecap="round" stroke-linejoin="round"/>
<path d="M5.13822 17.2461C4.67555 16.6386 3.75309 16.4419 3.08639 16.8122C2.76741 16.9886 2.52027 17.2663 2.27313 17.5325C2.02599 17.7986 1.75873 18.0647 1.42538 18.2064C1.09203 18.3482 0.669599 18.3424 0.402344 18.0936" stroke="#5C8ECF" stroke-width="1.17" stroke-linecap="round" stroke-linejoin="round"/>
<path d="M6.37303 16.6186C6.6654 16.5914 6.87885 16.3127 6.84979 15.9962C6.82073 15.6796 6.56015 15.445 6.26778 15.4722C5.97542 15.4994 5.76196 15.7781 5.79103 16.0947C5.82009 16.4112 6.08067 16.6458 6.37303 16.6186Z" fill="#5C8ECF"/>
<path d="M9.12059 16.3081C9.41296 16.2809 9.62641 16.0022 9.59735 15.6856C9.56828 15.3691 9.30771 15.1345 9.01534 15.1617C8.72297 15.1889 8.50952 15.4676 8.53859 15.7841C8.56765 16.1007 8.82822 16.3353 9.12059 16.3081Z" fill="#5C8ECF"/>
</g>
<defs>
<linearGradient id="paint0_linear_651_13465" x1="17.8238" y1="18.667" x2="17.8238" y2="35.6476" gradientUnits="userSpaceOnUse">
<stop stop-color="#60C8C4"/>
<stop offset="1" stop-color="#C5DEDD"/>
</linearGradient>
<radialGradient id="paint1_radial_651_13465" cx="0" cy="0" r="1" gradientUnits="userSpaceOnUse" gradientTransform="translate(17.897 20.6477) rotate(90) scale(15.3 14.7195)">
<stop stop-color="#DBE7E4"/>
<stop offset="1" stop-color="#C0E0DE"/>
</radialGradient>
<clipPath id="clip0_651_13465">
<rect width="24" height="24" rx="6" fill="white"/>
</clipPath>
</defs>
</svg>
