<svg width="24" height="24" viewBox="0 0 24 24" fill="none" xmlns="http://www.w3.org/2000/svg">
<g clip-path="url(#clip0_651_13494)">
<rect width="24" height="24" rx="6" fill="#2F56A5"/>
<path d="M12.4546 4.45736C13.8053 4.00155 15.1709 3.54322 16.589 3.42674C18.0071 3.31025 19.5051 3.56854 20.6461 4.43203C21.787 5.29553 22.4811 6.84019 22.0966 8.23039C21.7795 9.38003 20.7859 10.4486 21.1229 11.5907C21.3476 12.3554 22.1366 12.834 22.9155 12.9277C23.6945 13.0214 24.4759 12.8087 25.2349 12.5985C24.7405 13.2164 24.2437 13.8368 23.7494 14.4546" stroke="#CF845C" stroke-width="1.17" stroke-linecap="round" stroke-linejoin="round"/>
<path d="M14.8346 6.0381C11.3518 5.10118 7.3472 5.62282 4.9729 8.37029C2.93314 10.7303 2.53867 15.1212 4.6733 17.3927C5.78181 18.5752 8.20604 19.5653 10.1709 19.4514C11.7213 19.3602 11.4891 22.7635 12.69 24.5867C13.7536 26.2023 15.4263 27.0709 17.3313 27.2659C19.2362 27.4608 21.3484 27.2659 23.2558 27.0987C25.4778 26.9012 27.4027 26.3441 29.1578 25.2755C30.913 24.2069 31.9965 22.7357 31.8517 19.7274C31.6919 16.3798 29.2677 15.1947 26.786 14.6072C24.0173 13.9513 20.2299 15.6885 19.0589 12.5941C17.9804 9.7453 18.7618 7.09405 14.8321 6.0381H14.8346Z" fill="url(#paint0_radial_651_13494)"/>
<mask id="mask0_651_13494" style="mask-type:alpha" maskUnits="userSpaceOnUse" x="3" y="5" width="29" height="23">
<path d="M14.8463 5.98342C11.3635 5.04649 7.35892 5.56813 4.98461 8.31561C2.94486 10.6757 2.55039 15.0666 4.68502 17.338C5.79353 18.5205 8.21776 19.5106 10.1826 19.3967C11.733 19.3055 11.5008 22.7088 12.7017 24.5321C13.7653 26.1476 15.438 27.0162 17.343 27.2112C19.2479 27.4061 21.3601 27.2112 23.2675 27.044C25.4895 26.8465 27.4144 26.2894 29.1696 25.2208C30.9247 24.1522 32.0082 22.681 31.8634 19.6727C31.7036 16.3251 29.2794 15.14 26.7977 14.5525C24.029 13.8967 20.2416 15.6338 19.0707 12.5394C17.9921 9.69061 18.7736 7.03936 14.8438 5.98342H14.8463Z" fill="#99C1DE"/>
</mask>
<g mask="url(#mask0_651_13494)">
<path d="M2.99731 14.4705C4.30306 13.4298 6.24297 13.2398 7.7035 14.0426C8.40007 14.4275 9.01674 15.0656 9.14157 15.8607C9.26141 16.6432 8.86194 17.456 8.23029 17.9194C7.59864 18.3828 6.26541 18.7753 5.49395 18.6487" stroke="#CF845C" stroke-width="1.01299" stroke-miterlimit="10"/>
</g>
<path d="M6.7497 15.6689C6.6723 16.0614 6.69727 16.4742 6.8246 16.8515" stroke="#CF845C" stroke-width="1.01299" stroke-miterlimit="10" stroke-linecap="round"/>
<path d="M4.78156 15.6689C4.70416 16.0614 4.72913 16.4742 4.85646 16.8515" stroke="#CF845C" stroke-width="1.01299" stroke-miterlimit="10" stroke-linecap="round"/>
<path d="M13.1712 8.07696C12.8242 6.92733 12.4746 5.77769 12.1276 4.62805C12.0153 4.25582 11.8605 3.83546 11.501 3.69619C11.2488 3.59743 10.9517 3.67847 10.737 3.84559C10.5223 4.01272 10.375 4.25582 10.2601 4.50397C9.69589 5.73971 9.86566 7.2869 10.6821 8.36564" stroke="#CF845C" stroke-width="1.17" stroke-miterlimit="10" stroke-linecap="round"/>
<path d="M9.95541 4.23758C9.02416 3.08035 7.32644 2.63467 5.96078 3.1867C4.59512 3.73873 3.66138 5.24288 3.76624 6.73183C3.79869 7.2003 3.92353 7.66876 3.84863 8.12963C3.75625 8.69432 3.36927 9.17291 2.90739 9.49957C2.44551 9.82623 1.90624 10.0212 1.37695 10.2137C4.3854 11.1278 7.8083 10.5074 10.3199 8.59556" stroke="#CF845C" stroke-width="1.17" stroke-linecap="round" stroke-linejoin="round"/>
<path d="M7.74337 12.709C7.99846 12.709 8.20525 12.4834 8.20525 12.2051C8.20525 11.9268 7.99846 11.7012 7.74337 11.7012C7.48828 11.7012 7.28149 11.9268 7.28149 12.2051C7.28149 12.4834 7.48828 12.709 7.74337 12.709Z" fill="#CF845C"/>
<path d="M5.20687 12.709C5.46196 12.709 5.66875 12.4834 5.66875 12.2051C5.66875 11.9268 5.46196 11.7012 5.20687 11.7012C4.95179 11.7012 4.745 11.9268 4.745 12.2051C4.745 12.4834 4.95179 12.709 5.20687 12.709Z" fill="#CF845C"/>
</g>
<defs>
<radialGradient id="paint0_radial_651_13494" cx="0" cy="0" r="1" gradientUnits="userSpaceOnUse" gradientTransform="translate(17.5558 16.4784) rotate(90) scale(10.869 14.3088)">
<stop stop-color="#FFDB7F"/>
<stop offset="1" stop-color="#F6E5BA"/>
</radialGradient>
<clipPath id="clip0_651_13494">
<rect width="24" height="24" rx="6" fill="white"/>
</clipPath>
</defs>
</svg>
