<svg width="28" height="38" viewBox="0 0 28 38" fill="none" xmlns="http://www.w3.org/2000/svg">
<path d="M5.50706 9.80859C4.87448 10.4704 4.24191 10.7377 3.38201 11.0572C2.5221 11.3766 1.61608 11.9634 1.50735 12.8665C1.44146 13.4109 1.71492 13.9846 2.18276 14.278C2.6506 14.5714 3.66535 14.3954 4.13648 14.102" stroke="#5C62CF" stroke-width="1.56" stroke-linecap="round" stroke-linejoin="round"/>
<g style="mix-blend-mode:multiply" filter="url(#filter0_f_774_47232)">
<ellipse cx="25.1757" cy="31.333" rx="20.8181" ry="2" fill="#6F85B3"/>
</g>
<path d="M17.4732 28.6191C17.292 29.0723 17.1075 29.5319 17.0647 30.0144C17.0218 30.4969 17.1372 31.0217 17.4831 31.364C17.9509 31.8302 18.6922 31.8596 19.3578 31.8628C20.0727 31.8628 20.7909 31.8628 21.5059 31.8628C22.234 31.8628 23.0313 31.8433 23.5914 31.3836C24.079 30.9826 24.2833 30.3209 24.2668 29.6917C24.2602 29.4244 24.2174 29.1603 24.1581 28.8995" fill="url(#paint0_radial_774_47232)"/>
<path d="M26.1314 29.0174C26.0655 29.3108 26.0227 29.6107 25.9996 29.8715C25.9568 30.3572 26.0721 30.8788 26.418 31.2211C26.8859 31.6873 27.6272 31.7166 28.2927 31.7199C29.0076 31.7199 29.7259 31.7199 30.4408 31.7199C31.1689 31.7199 31.9662 31.7003 32.5263 31.2407C33.0139 30.8397 33.2182 30.1779 33.2017 29.5487C33.1951 29.2586 33.1589 28.7435 33.0996 28.2773" fill="url(#paint1_radial_774_47232)"/>
<path d="M22.3097 0.494924C15.984 0.341705 9.44414 3.30177 6.19891 8.67422C2.95368 14.0467 3.70815 21.737 8.53152 25.7891C11.6186 28.3808 15.8094 29.261 19.8453 29.5772C24.2964 29.9261 30.889 30.0402 35.1391 28.6807C42.3873 26.3629 47.2436 16.4558 41.8734 9.4827C38.3613 4.91872 27.937 0.628583 22.3097 0.494924Z" fill="url(#paint2_radial_774_47232)"/>
<path d="M7.32898 15.6535C9.07844 16.0252 10.9992 18.5321 9.51004 20.224C11.2562 18.242 14.8276 18.2909 16.5178 20.3186C16.073 18.2485 17.9839 16.0284 20.1188 16.1327C17.5457 16.537 16.1652 13.3096 18.03 11.647C17.1899 12.2142 15.8061 12.2925 14.9693 11.722C14.1324 11.1515 13.7107 10.0431 13.9512 9.06836C13.971 10.1898 13.2989 11.2949 12.2874 11.797C11.276 12.299 9.97788 12.1784 9.07844 11.4938C9.68136 12.2697 9.79008 13.3911 9.3453 14.2648C8.90053 15.1384 8.31737 15.6731 7.32898 15.6535Z" fill="#F2EDFB" stroke="#5C62CF" stroke-width="1.56" stroke-linecap="round" stroke-linejoin="round"/>
<path d="M11.2232 15.9401C11.5599 15.9401 11.8328 15.6496 11.8328 15.2913C11.8328 14.933 11.5599 14.6426 11.2232 14.6426C10.8866 14.6426 10.6137 14.933 10.6137 15.2913C10.6137 15.6496 10.8866 15.9401 11.2232 15.9401Z" fill="#5C62CF"/>
<path d="M14.0599 15.9401C14.3966 15.9401 14.6695 15.6496 14.6695 15.2913C14.6695 14.933 14.3966 14.6426 14.0599 14.6426C13.7233 14.6426 13.4504 14.933 13.4504 15.2913C13.4504 15.6496 13.7233 15.9401 14.0599 15.9401Z" fill="#5C62CF"/>
<path d="M23.7989 11.0156C24.2767 11.5731 24.9883 11.7524 25.6901 11.8991C26.3918 12.0458 27.1825 12.349 27.3835 13.0303C27.5186 13.4834 27.3242 13.9855 26.9947 14.3245C26.6653 14.6635 26.2106 14.8624 25.756 15.0058C24.0098 15.5503 22.3625 15.3253 20.7876 14.4027" stroke="#5C62CF" stroke-width="1.56" stroke-linecap="round" stroke-linejoin="round"/>
<defs>
<filter id="filter0_f_774_47232" x="-0.0074439" y="24.9679" width="50.3663" height="12.7302" filterUnits="userSpaceOnUse" color-interpolation-filters="sRGB">
<feFlood flood-opacity="0" result="BackgroundImageFix"/>
<feBlend mode="normal" in="SourceGraphic" in2="BackgroundImageFix" result="shape"/>
<feGaussianBlur stdDeviation="2.18254" result="effect1_foregroundBlur_774_47232"/>
</filter>
<radialGradient id="paint0_radial_774_47232" cx="0" cy="0" r="1" gradientUnits="userSpaceOnUse" gradientTransform="translate(20.6619 30.241) rotate(90) scale(1.62184 3.60577)">
<stop stop-color="#B677EE"/>
<stop offset="1" stop-color="#B1ABF9"/>
</radialGradient>
<radialGradient id="paint1_radial_774_47232" cx="0" cy="0" r="1" gradientUnits="userSpaceOnUse" gradientTransform="translate(29.5969 29.9986) rotate(90) scale(1.72127 3.60577)">
<stop stop-color="#B677EE"/>
<stop offset="1" stop-color="#B1ABF9"/>
</radialGradient>
<radialGradient id="paint2_radial_774_47232" cx="0" cy="0" r="1" gradientUnits="userSpaceOnUse" gradientTransform="translate(24.193 15.1473) rotate(90) scale(14.658 19.9643)">
<stop stop-color="#C996ED"/>
<stop offset="1" stop-color="#D4D2FC"/>
</radialGradient>
</defs>
</svg>
