<svg width="32" height="31" viewBox="0 0 32 31" fill="none" xmlns="http://www.w3.org/2000/svg">
<path d="M23.2408 24.3545C23.0122 24.9293 22.3599 26.5918 22.3059 27.208C22.2519 27.8242 22.3973 28.4859 22.8336 28.9201C23.4236 29.5115 24.3584 29.5487 25.1977 29.5529C26.0993 29.5529 27.005 29.5529 27.9066 29.5529C28.8249 29.5529 29.8303 29.5281 30.5367 28.9449C31.1516 28.4363 31.4092 27.5968 31.3884 26.7986C31.3801 26.4595 31.3261 26.1245 31.2513 25.7937" fill="url(#paint0_radial_774_47245)"/>
<path d="M6.30988 10.1445C4.51084 10.3679 3.1896 11.3893 2.27138 12.9484C1.35316 14.5075 1.3864 16.6291 2.52483 18.0351C3.66325 19.4412 5.54539 19.9085 7.03698 18.8871" stroke="#CF6F5C" stroke-width="1.56" stroke-linecap="round" stroke-linejoin="round"/>
<path d="M19.8671 2.69957C14.0088 1.32244 10.7223 3.07591 8.29588 6.40915C5.86945 9.7424 4.99694 14.7547 6.95386 18.4601C9.31797 22.9348 14.5489 23.9769 19.1317 24.5683C22.6093 25.0191 26.091 25.4699 29.5686 25.9206C34.6251 26.574 40.1635 27.1117 44.4097 23.9397C48.7848 20.6726 50.5049 13.5636 48.2072 8.23293C45.7143 2.4349 41.1025 0.491196 35.7884 0.586313C29.7057 0.693837 25.8958 4.11806 19.8671 2.69957Z" fill="url(#paint1_radial_774_47245)"/>
<path d="M10.4356 13.4497C10.8601 13.4497 11.2043 13.0812 11.2043 12.6267C11.2043 12.1722 10.8601 11.8037 10.4356 11.8037C10.0111 11.8037 9.66699 12.1722 9.66699 12.6267C9.66699 13.0812 10.0111 13.4497 10.4356 13.4497Z" fill="#CF6F5C"/>
<path d="M14.4284 13.4497C14.8529 13.4497 15.1971 13.0812 15.1971 12.6267C15.1971 12.1722 14.8529 11.8037 14.4284 11.8037C14.0039 11.8037 13.6598 12.1722 13.6598 12.6267C13.6598 13.0812 14.0039 13.4497 14.4284 13.4497Z" fill="#CF6F5C"/>
<path d="M25.7088 8.75098C28.2807 10.7484 30.8525 12.75 33.4202 14.7475C34.4257 15.5291 35.4893 16.4017 35.8009 17.63C36.0876 18.7631 35.6347 20.0038 34.8162 20.8433C33.9977 21.6828 32.8593 22.1584 31.7042 22.3693C29.0784 22.8532 26.2406 22.0219 24.3045 20.194C22.3683 18.3661 21.3712 15.5953 21.7119 12.9568" stroke="#CF6F5C" stroke-width="1.56" stroke-linecap="round" stroke-linejoin="round"/>
<path d="M11.8565 16.77L11.8025 18.8377M13.7304 15.4259C13.7304 15.9329 12.9602 16.344 12.0103 16.344C11.0603 16.344 10.2902 15.9329 10.2902 15.4259C10.2902 14.9189 11.0603 14.5078 12.0103 14.5078C12.9602 14.5078 13.7304 14.9189 13.7304 15.4259Z" stroke="#CF6F5C" stroke-width="2" stroke-linecap="round" stroke-linejoin="round"/>
<defs>
<radialGradient id="paint0_radial_774_47245" cx="0" cy="0" r="1" gradientUnits="userSpaceOnUse" gradientTransform="translate(26.8424 26.9537) rotate(90) scale(2.59919 4.54719)">
<stop stop-color="#E6A680"/>
<stop offset="1" stop-color="#DCB69F"/>
</radialGradient>
<radialGradient id="paint1_radial_774_47245" cx="0" cy="0" r="1" gradientUnits="userSpaceOnUse" gradientTransform="translate(27.5529 13.5011) rotate(90) scale(12.9181 21.6742)">
<stop stop-color="#F1CFBA"/>
<stop offset="1" stop-color="#EDDCD2"/>
</radialGradient>
</defs>
</svg>
