<svg width="28" height="38" viewBox="0 0 28 38" fill="none" xmlns="http://www.w3.org/2000/svg">
<g style="mix-blend-mode:multiply" filter="url(#filter0_f_774_47273)">
<ellipse cx="26.1701" cy="31.2918" rx="21.0884" ry="2.04082" fill="#6F85B3"/>
</g>
<path d="M23.1132 29.1807C22.9445 29.6095 22.7727 30.0445 22.7328 30.5012C22.6929 30.9578 22.8003 31.4545 23.1224 31.7785C23.558 32.2197 24.2481 32.2474 24.8678 32.2505C25.5334 32.2505 26.2021 32.2505 26.8677 32.2505C27.5456 32.2505 28.288 32.232 28.8094 31.797C29.2634 31.4175 29.4536 30.7912 29.4382 30.1957" fill="url(#paint0_linear_774_47273)"/>
<path d="M10.8987 7.18325C9.35574 5.56965 6.78216 5.05441 4.74232 5.95531C2.70247 6.85621 1.33746 9.10229 1.46936 11.3391C1.60126 13.5759 3.227 15.6431 5.35887 16.291C6.49996 16.6396 7.8527 16.5563 8.73919 15.7511" stroke="#5C62CF" stroke-width="1.56" stroke-linecap="round" stroke-linejoin="round"/>
<path d="M24.7143 0.465811C15.9906 0.330059 12.6501 3.7578 10.4692 8.07719C8.28822 12.3966 7.96921 18.3265 10.8097 22.4052C13.3188 26.0119 15.7789 26.0304 19.8064 27.752C23.0549 29.1435 26.2818 31.044 31.5302 30.7015C35.8246 30.4208 39.9135 26.6567 40.119 22.8156C40.2632 20.0913 39.5454 18.9065 39.165 16.0958C38.1436 8.55849 31.8952 0.579967 24.7143 0.465811Z" fill="url(#paint1_radial_774_47273)"/>
<path d="M15.0612 16.1606C15.3746 16.1606 15.6286 15.8857 15.6286 15.5466C15.6286 15.2075 15.3746 14.9326 15.0612 14.9326C14.7477 14.9326 14.4937 15.2075 14.4937 15.5466C14.4937 15.8857 14.7477 16.1606 15.0612 16.1606Z" fill="#5C62CF"/>
<path d="M18.0089 16.1606C18.3224 16.1606 18.5764 15.8857 18.5764 15.5466C18.5764 15.2075 18.3224 14.9326 18.0089 14.9326C17.6955 14.9326 17.4415 15.2075 17.4415 15.5466C17.4415 15.8857 17.6955 16.1606 18.0089 16.1606Z" fill="#5C62CF"/>
<path d="M9.61646 9.90994C10.2514 8.5987 11.9048 7.84589 13.3526 7.886C14.8004 7.92611 16.1869 8.87946 16.7482 10.2246C18.5028 8.2007 21.4445 7.50034 24.0733 7.97239C27.4935 8.58328 30.521 11.07 31.8002 14.3157C33.0793 17.5614 32.5732 21.4612 30.4996 24.2627C28.426 27.0641 25.1377 28.5111 21.6776 28.2149" stroke="#5C62CF" stroke-width="1.56" stroke-linecap="round" stroke-linejoin="round"/>
<path d="M16.4354 16.9531L16.3557 21.328" stroke="#5C62CF" stroke-width="1.36054" stroke-linecap="round" stroke-linejoin="round"/>
<defs>
<filter id="filter0_f_774_47273" x="1.34017" y="25.5095" width="49.6599" height="11.565" filterUnits="userSpaceOnUse" color-interpolation-filters="sRGB">
<feFlood flood-opacity="0" result="BackgroundImageFix"/>
<feBlend mode="normal" in="SourceGraphic" in2="BackgroundImageFix" result="shape"/>
<feGaussianBlur stdDeviation="1.87075" result="effect1_foregroundBlur_774_47273"/>
</filter>
<linearGradient id="paint0_linear_774_47273" x1="26.082" y1="29.1807" x2="26.082" y2="32.2505" gradientUnits="userSpaceOnUse">
<stop stop-color="#94C7E4"/>
<stop offset="1" stop-color="#B1CCDB"/>
</linearGradient>
<radialGradient id="paint1_radial_774_47273" cx="0" cy="0" r="1" gradientUnits="userSpaceOnUse" gradientTransform="translate(24.4471 15.602) rotate(90) scale(15.1401 15.6907)">
<stop stop-color="#B0D5EB"/>
<stop offset="1" stop-color="#D6E2E9"/>
</radialGradient>
</defs>
</svg>
