<svg width="27" height="43" viewBox="0 0 27 43" fill="none" xmlns="http://www.w3.org/2000/svg">
<g style="mix-blend-mode:multiply" filter="url(#filter0_f_774_47180)">
<ellipse cx="21.7143" cy="37.3984" rx="16.8889" ry="1.80952" fill="#6F85B3"/>
</g>
<path d="M14.5969 26.3418C13.5403 26.4547 12.5161 26.8825 11.6897 27.5539C11.3651 27.8183 11.0434 28.1956 11.1231 28.6085C11.2086 29.0512 11.7399 29.2799 12.1797 29.1997C12.6194 29.1195 12.9824 28.8195 13.3248 28.5283" stroke="#5C8ECF" stroke-width="1.20635" stroke-linecap="round" stroke-linejoin="round"/>
<path d="M15.0858 19.3026L22.2991 19.1719L24.6926 23.8925L21.2159 32.805L25.035 36.5839C22.7831 36.6374 19.9704 36.6849 17.8218 36.0016C15.6731 35.3183 13.6691 33.7646 13.0493 31.5869C12.6686 30.2441 12.8486 28.7765 13.4065 27.4991C13.9643 26.2216 14.8763 24.8996 15.7292 23.6459L15.0858 19.3026Z" fill="url(#paint0_linear_774_47180)"/>
<path d="M8.86418 25.0506C5.53499 24.0138 3.56049 20.1933 3.94713 16.7056C4.33376 13.2208 6.67423 10.1846 9.56071 8.22091C14.4394 4.9025 21.3191 4.44202 26.186 7.77529C29.1846 9.8311 31.2595 13.2 31.7523 16.8185C32.2452 20.4369 31.1473 24.2426 28.8098 27.0351C27.7355 28.3185 26.4251 29.3821 25.3537 30.6685C24.6926 31.4646 24.0993 32.445 24.2292 33.4729C24.3856 34.7088 25.4865 35.3208 26.6995 35.5555C27.9126 35.7902 28.9308 35.8199 30.1674 35.8288C31.5074 35.8377 32.8975 35.6565 34.1341 35.4663C30.5423 36.8062 26.6198 37.231 22.8302 36.6933C21.7264 36.5358 20.5636 36.2625 19.7814 35.4634C18.53 34.1889 18.716 32.0529 19.4509 30.4219C20.295 28.5503 21.8504 26.8925 22.1957 24.813C22.4525 23.2622 21.7441 21.1707 19.8818 21.5985C18.2556 21.9729 16.833 23.4701 15.3484 24.2039C13.3621 25.1843 11.0276 25.722 8.86122 25.0477L8.86418 25.0506Z" fill="url(#paint1_radial_774_47180)"/>
<path d="M20.6226 5.57358C20.7023 3.93666 21.7854 2.43639 23.2287 1.6818C24.6719 0.927214 26.4251 0.87968 27.9775 1.37284C30.2088 2.07989 32.0829 3.95151 32.6378 6.24202C33.1926 8.52955 32.3161 11.1468 30.3977 12.4986C31.2477 11.845 32.502 11.7588 33.4051 12.3322C34.3083 12.9056 34.7716 14.1236 34.4293 15.1456C34.0869 16.1675 32.9477 16.8597 31.8999 16.6458C33.1572 16.4349 34.4558 17.5817 34.4116 18.865C34.3673 20.1484 32.989 21.2001 31.7494 20.9001" stroke="#5C8ECF" stroke-width="1.20163" stroke-linecap="round" stroke-linejoin="round"/>
<path d="M13.9081 10.3025C12.5534 7.87534 11.7654 5.1303 11.6237 2.34961" stroke="#5C8ECF" stroke-width="1.20163" stroke-linecap="round" stroke-linejoin="round"/>
<path d="M8.95867 11.4435C7.18782 9.89868 5.86559 7.8399 5.19267 5.5791" stroke="#5C8ECF" stroke-width="1.20163" stroke-linecap="round" stroke-linejoin="round"/>
<path d="M11.9543 4.84053L14.7729 2.46387" stroke="#5C8ECF" stroke-width="1.20163" stroke-linecap="round" stroke-linejoin="round"/>
<path d="M6.25815 8.29297L3.10899 8.75642" stroke="#5C8ECF" stroke-width="1.20163" stroke-linecap="round" stroke-linejoin="round"/>
<path d="M5.14547 20.3094C5.24287 21.0076 5.80068 21.6077 6.47951 21.7889C7.15833 21.9701 7.91684 21.7413 8.41268 21.2422C9.26269 21.8958 10.5082 22.0741 11.4143 21.5067C12.3203 20.9392 12.6893 19.5697 12.0488 18.7081C11.5884 18.0902 10.762 17.8525 9.99168 17.8525C8.15886 17.8555 8.758 19.8281 7.96111 19.1775C6.91041 18.319 4.95363 18.9428 5.14547 20.3124V20.3094Z" stroke="#5C8ECF" stroke-width="1.20163" stroke-linecap="round" stroke-linejoin="round"/>
<path d="M18.9462 26.5242C17.6742 26.3043 16.3313 26.5212 15.1891 27.1302C14.8969 27.2877 14.6106 27.4748 14.4158 27.7452C14.221 28.0155 14.1384 28.3869 14.2771 28.6899C14.4276 29.0196 14.8054 29.2009 15.1655 29.2157C15.5255 29.2306 15.8797 29.1147 16.2221 29.0018C17.1901 28.678 18.1582 28.3542 19.1233 28.0304" stroke="#5C8ECF" stroke-width="1.20635" stroke-linecap="round" stroke-linejoin="round"/>
<path d="M12.4885 17.4604C12.8958 16.8069 13.7016 16.4355 14.4601 16.5484C14.9618 16.6227 15.4134 16.89 15.859 17.1366C16.3047 17.3832 16.774 17.6238 17.2816 17.6387C17.7893 17.6535 18.3412 17.3862 18.4946 16.8989" stroke="#5C8ECF" stroke-width="1.20163" stroke-linecap="round" stroke-linejoin="round"/>
<path d="M5.91282 17.7131C5.43765 17.0892 4.49025 16.8872 3.80552 17.2674C3.47791 17.4487 3.22409 17.7339 2.97027 18.0072C2.71645 18.2805 2.44197 18.5538 2.09961 18.6994C1.75724 18.845 1.32339 18.839 1.0489 18.5835" stroke="#5C8ECF" stroke-width="1.20163" stroke-linecap="round" stroke-linejoin="round"/>
<path d="M7.18096 17.0682C7.48124 17.0403 7.70046 16.7541 7.67061 16.4289C7.64076 16.1038 7.37314 15.8629 7.07287 15.8908C6.77259 15.9188 6.55337 16.205 6.58322 16.5301C6.61307 16.8552 6.88069 17.0961 7.18096 17.0682Z" fill="#5C8ECF"/>
<path d="M10.0029 16.7489C10.3032 16.7209 10.5224 16.4347 10.4925 16.1096C10.4627 15.7845 10.1951 15.5436 9.89478 15.5715C9.59451 15.5994 9.37529 15.8856 9.40514 16.2108C9.43499 16.5359 9.70261 16.7768 10.0029 16.7489Z" fill="#5C8ECF"/>
<defs>
<filter id="filter0_f_774_47180" x="1.50796" y="32.2714" width="40.4127" height="10.2541" filterUnits="userSpaceOnUse" color-interpolation-filters="sRGB">
<feFlood flood-opacity="0" result="BackgroundImageFix"/>
<feBlend mode="normal" in="SourceGraphic" in2="BackgroundImageFix" result="shape"/>
<feGaussianBlur stdDeviation="1.65873" result="effect1_foregroundBlur_774_47180"/>
</filter>
<linearGradient id="paint0_linear_774_47180" x1="18.9413" y1="19.1719" x2="18.9413" y2="36.6116" gradientUnits="userSpaceOnUse">
<stop stop-color="#60C8C4"/>
<stop offset="1" stop-color="#C5DEDD"/>
</linearGradient>
<radialGradient id="paint1_radial_774_47180" cx="0" cy="0" r="1" gradientUnits="userSpaceOnUse" gradientTransform="translate(19.0166 21.2059) rotate(90) scale(15.7137 15.1175)">
<stop stop-color="#DBE7E4"/>
<stop offset="1" stop-color="#C0E0DE"/>
</radialGradient>
</defs>
</svg>
