<svg width="31" height="37" viewBox="0 0 31 37" fill="none" xmlns="http://www.w3.org/2000/svg">
<g style="mix-blend-mode:multiply" filter="url(#filter0_f_774_47145)">
<ellipse cx="27.6364" cy="31.2726" rx="22.5455" ry="2.18182" fill="#6F85B3"/>
</g>
<path d="M7.7223 9.26416C6.85347 9.46588 5.99981 8.94827 5.22203 8.5144C4.44425 8.08053 3.45401 7.71897 2.6952 8.19471C2.02745 8.61716 1.85292 9.58766 2.19059 10.307C2.52826 11.0263 3.25672 11.4906 4.01932 11.6961C4.78192 11.9017 5.58246 11.8826 6.37162 11.8598" stroke="#5C62CF" stroke-width="1.56" stroke-linecap="round" stroke-linejoin="round"/>
<path d="M20.1487 26.2607C19.939 26.8988 19.7254 27.546 19.6758 28.2253C19.6263 28.9046 19.7597 29.6436 20.1601 30.1255C20.7016 30.7819 21.5596 30.8232 22.3299 30.8278C23.1574 30.8278 23.9887 30.8278 24.8162 30.8278C25.659 30.8278 26.5818 30.8003 27.2301 30.1531C27.7944 29.5885 28.0309 28.6567 28.0118 27.7709C28.0042 27.3945 27.9546 27.0227 27.8859 26.6555" fill="url(#paint0_radial_774_47145)"/>
<path d="M30.2666 27.3426C30.1907 27.6851 30.1414 28.0353 30.1148 28.3397C30.0655 28.9068 30.1983 29.5158 30.5966 29.9154C31.1354 30.4596 31.9891 30.4939 32.7555 30.4977C33.5788 30.4977 34.4059 30.4977 35.2292 30.4977C36.0676 30.4977 36.9858 30.4748 37.6308 29.9382C38.1923 29.4701 38.4275 28.6975 38.4086 27.9629C38.3934 27.3959 38.291 26.0981 38.1202 25.5576" fill="url(#paint1_radial_774_47145)"/>
<path d="M36.8145 1.63678C34.6206 1.01209 33.322 0.623364 31.189 0.602542C27.4553 0.566982 23.7587 1.40065 20.091 2.10294C17.1416 2.66513 14.1694 3.37826 11.5639 4.8788C8.95842 6.37933 6.73809 8.77554 6.06733 11.7131C5.07234 16.0727 7.75422 20.6161 11.4504 23.1145C15.1504 25.6131 19.6734 26.4835 24.0751 27.1957C27.9169 27.8158 31.9099 28.3482 35.6482 27.2658C40.141 25.9659 43.8711 22.2187 45.0542 17.6864C45.9157 14.3893 45.7862 10.41 44.095 7.46088C42.5921 4.83907 39.8238 2.49899 36.8104 1.64029L36.8145 1.63678Z" fill="url(#paint2_radial_774_47145)"/>
<path d="M9.81664 15.7989C10.2043 15.7989 10.5185 15.4598 10.5185 15.0416C10.5185 14.6233 10.2043 14.2842 9.81664 14.2842C9.429 14.2842 9.11475 14.6233 9.11475 15.0416C9.11475 15.4598 9.429 15.7989 9.81664 15.7989Z" fill="#5C62CF"/>
<path d="M13.4627 15.7989C13.8503 15.7989 14.1646 15.4598 14.1646 15.0416C14.1646 14.6233 13.8503 14.2842 13.4627 14.2842C13.075 14.2842 12.7608 14.6233 12.7608 15.0416C12.7608 15.4598 13.075 15.7989 13.4627 15.7989Z" fill="#5C62CF"/>
<path d="M11.653 20.1298C12.4042 20.7045 13.2617 21.2145 14.2064 21.2678C15.1511 21.3211 16.1831 20.7844 16.4259 19.8672C16.6459 19.0413 16.1679 18.147 15.4736 17.6522C14.7793 17.1574 13.9104 16.9747 13.0644 16.8606C11.8465 16.6969 10.5451 16.655 9.46003 17.2297C8.37493 17.8044 7.6313 19.1898 8.1397 20.3087C8.45082 20.9976 9.21342 21.4581 9.96843 21.4124C10.7234 21.3667 11.4215 20.8225 11.653 20.0994" stroke="#5C62CF" stroke-width="1.56" stroke-linecap="round" stroke-linejoin="round"/>
<path d="M22.3597 9.97878L25.4177 8.46783C25.8502 8.2547 26.3207 8.03396 26.7987 8.11008C27.5955 8.23948 28.0546 9.19857 27.8762 9.99019C27.6979 10.7818 27.0681 11.3908 26.3852 11.8246C25.1597 12.601 23.68 12.9626 22.2345 12.8332" stroke="#5C62CF" stroke-width="1.56" stroke-linecap="round" stroke-linejoin="round"/>
<path d="M16.6232 3.73047C15.6026 4.24046 14.6616 4.90649 13.8459 5.70573C11.873 7.65054 10.6779 10.3718 10.5831 13.1463" stroke="#5C62CF" stroke-width="1.56" stroke-linecap="round" stroke-linejoin="round"/>
<path d="M14.7781 7.45187C13.1884 7.20068 11.5532 7.23113 9.97484 7.54702" stroke="#5C62CF" stroke-width="1.56" stroke-linecap="round" stroke-linejoin="round"/>
<path d="M14.1064 11.0977L9.32213 10.9873C9.42836 10.9987 9.5308 11.0063 9.63703 11.0178" stroke="#5C62CF" stroke-width="1.56" stroke-linecap="round" stroke-linejoin="round"/>
<path d="M26.6508 1.26074C28.6844 2.09423 30.4107 3.65085 31.4616 5.58805C32.5126 7.52525 32.8692 9.82402 32.4595 11.9896" stroke="#5C62CF" stroke-width="1.56" stroke-linecap="round" stroke-linejoin="round"/>
<defs>
<filter id="filter0_f_774_47145" x="1.09096" y="25.0908" width="53.0909" height="12.3633" filterUnits="userSpaceOnUse" color-interpolation-filters="sRGB">
<feFlood flood-opacity="0" result="BackgroundImageFix"/>
<feBlend mode="normal" in="SourceGraphic" in2="BackgroundImageFix" result="shape"/>
<feGaussianBlur stdDeviation="2" result="effect1_foregroundBlur_774_47145"/>
</filter>
<radialGradient id="paint0_radial_774_47145" cx="0" cy="0" r="1" gradientUnits="userSpaceOnUse" gradientTransform="translate(23.8394 28.5443) rotate(90) scale(2.28354 4.17344)">
<stop stop-color="#7DC0E6"/>
<stop offset="1" stop-color="#B1CCDB"/>
</radialGradient>
<radialGradient id="paint1_radial_774_47145" cx="0" cy="0" r="1" gradientUnits="userSpaceOnUse" gradientTransform="translate(34.2573 28.0276) rotate(90) scale(2.47003 4.15232)">
<stop stop-color="#7DC0E6"/>
<stop offset="1" stop-color="#B1CCDB"/>
</radialGradient>
<radialGradient id="paint2_radial_774_47145" cx="0" cy="0" r="1" gradientUnits="userSpaceOnUse" gradientTransform="translate(25.7078 13.8603) rotate(94.3175) scale(13.6707 19.8384)">
<stop stop-color="#BBDEF3"/>
<stop offset="1" stop-color="#D6E2E9"/>
</radialGradient>
</defs>
</svg>
