<svg width="32" height="44" viewBox="0 0 32 44" fill="none" xmlns="http://www.w3.org/2000/svg">
<g style="mix-blend-mode:multiply" filter="url(#filter0_f_774_47111)">
<ellipse cx="26.3061" cy="37.299" rx="24.4626" ry="2.36735" fill="#6F85B3"/>
</g>
<path d="M16.2978 34.1776C16.0891 34.7052 15.8766 35.2404 15.8272 35.8022C15.7779 36.3639 15.9107 36.975 16.3092 37.3736C16.8481 37.9164 17.702 37.9505 18.4686 37.9543C19.2921 37.9543 20.1194 37.9543 20.9429 37.9543C21.7816 37.9543 22.7 37.9316 23.3452 37.3964C23.9068 36.9295 24.1421 36.159 24.1231 35.4264C24.108 34.8608 23.9637 34.3105 23.793 33.7715" fill="url(#paint0_radial_774_47111)"/>
<path d="M26.5102 33.8216C26.3014 34.3492 26.1648 35.0704 26.1155 35.6359C26.0662 36.2015 26.199 36.8088 26.5975 37.2073C27.1364 37.7501 27.9902 37.7843 28.7568 37.7881C29.5803 37.7881 30.4077 37.7881 31.2312 37.7881C32.0699 37.7881 32.9883 37.7653 33.6334 37.2301C34.1951 36.7633 34.4304 35.9927 34.4114 35.2602C34.3962 34.6946 34.0205 32.1249 33.8497 31.5859" fill="url(#paint1_radial_774_47111)"/>
<path d="M39.3639 14.0426C35.8042 9.95086 28.605 8.70587 23.2958 9.81801C17.9865 10.9301 14.4572 14.054 10.3016 17.5422C7.12518 20.2144 5.03792 22.3286 5.68687 26.4317C6.40033 30.9334 11.406 33.7574 15.9107 34.4292C23.3527 35.5414 30.3279 34.9341 36.529 30.6184C41.9331 26.8606 44.0052 19.3793 39.3639 14.0426Z" fill="url(#paint2_radial_774_47111)"/>
<path d="M11.2124 23.3076C11.6002 23.3076 11.9145 22.9694 11.9145 22.5522C11.9145 22.1351 11.6002 21.7969 11.2124 21.7969C10.8247 21.7969 10.5103 22.1351 10.5103 22.5522C10.5103 22.9694 10.8247 23.3076 11.2124 23.3076Z" fill="#CF845C"/>
<path d="M15.239 23.3076C15.6267 23.3076 15.9411 22.9694 15.9411 22.5522C15.9411 22.1351 15.6267 21.7969 15.239 21.7969C14.8512 21.7969 14.5369 22.1351 14.5369 22.5522C14.5369 22.9694 14.8512 23.3076 15.239 23.3076Z" fill="#CF845C"/>
<mask id="mask0_774_47111" style="mask-type:alpha" maskUnits="userSpaceOnUse" x="5" y="9" width="37" height="26">
<path d="M39.3639 14.0407C35.8042 9.9489 28.605 8.70392 23.2958 9.81605C17.9865 10.9282 14.4572 14.052 10.3016 17.5403C7.12518 20.2124 5.03792 22.3266 5.68687 26.4298C6.40033 30.9315 11.406 33.7555 15.9107 34.4273C23.3527 35.5394 30.3279 34.9321 36.529 30.6164C41.9331 26.8587 44.0052 19.3774 39.3639 14.0407Z" fill="#99C1DE"/>
</mask>
<g mask="url(#mask0_774_47111)">
<path d="M5.78912 24.7972C6.41435 24.5259 8.14926 24.7068 8.5842 25.2268C9.01914 25.7468 9.06897 26.5607 8.69294 27.1259C8.3169 27.6911 6.60463 27.9624 5.95676 27.7634" stroke="#CF845C" stroke-width="1.57823" stroke-miterlimit="10" stroke-linecap="round" stroke-linejoin="round"/>
</g>
<path d="M32.9693 18.2959C36.1154 17.8974 38.882 15.4492 39.7321 12.3937C40.5822 9.33812 39.5044 5.84989 37.1287 3.75087C34.753 1.65186 31.2047 1.01039 28.218 2.07318C25.2313 3.13597 22.9012 5.83091 22.2067 8.92439C21.3831 5.61076 17.9145 3.17393 14.5179 3.53072C11.1214 3.88752 8.2296 6.99239 8.11575 10.4047C8.0019 13.817 10.6774 17.1079 14.0436 17.6924" stroke="#CF845C" stroke-width="1.56" stroke-linecap="round" stroke-linejoin="round"/>
<defs>
<filter id="filter0_f_774_47111" x="-2.4966" y="30.5915" width="57.6054" height="13.4146" filterUnits="userSpaceOnUse" color-interpolation-filters="sRGB">
<feFlood flood-opacity="0" result="BackgroundImageFix"/>
<feBlend mode="normal" in="SourceGraphic" in2="BackgroundImageFix" result="shape"/>
<feGaussianBlur stdDeviation="2.17007" result="effect1_foregroundBlur_774_47111"/>
</filter>
<radialGradient id="paint0_radial_774_47111" cx="0" cy="0" r="1" gradientUnits="userSpaceOnUse" gradientTransform="translate(19.9708 35.8629) rotate(90) scale(2.09142 4.1534)">
<stop stop-color="#FFC42D"/>
<stop offset="1" stop-color="#FFDB7F"/>
</radialGradient>
<radialGradient id="paint1_radial_774_47111" cx="0" cy="0" r="1" gradientUnits="userSpaceOnUse" gradientTransform="translate(30.2591 34.687) rotate(90) scale(3.10108 4.1534)">
<stop stop-color="#FFC42D"/>
<stop offset="1" stop-color="#FFDB7F"/>
</radialGradient>
<radialGradient id="paint2_radial_774_47111" cx="0" cy="0" r="1" gradientUnits="userSpaceOnUse" gradientTransform="translate(23.7505 22.173) rotate(90) scale(12.7424 18.1819)">
<stop stop-color="#FFDB7F"/>
<stop offset="1" stop-color="#F6E5BA"/>
</radialGradient>
</defs>
</svg>
