<svg width="28" height="42" viewBox="0 0 28 42" fill="none" xmlns="http://www.w3.org/2000/svg">
<g style="mix-blend-mode:multiply" filter="url(#filter0_f_774_47213)">
<ellipse cx="26.6622" cy="36.1187" rx="20.9351" ry="2.02597" fill="#6F85B3"/>
</g>
<path d="M16.2728 3.51573C18.0737 2.908 19.8946 2.29688 21.7854 2.14157C23.6762 1.98626 25.6735 2.33065 27.1948 3.48197C28.7161 4.63329 29.6415 6.69285 29.1289 8.54644C28.7061 10.0793 27.3812 11.5041 27.8306 13.0268C28.1302 14.0465 29.1821 14.6846 30.2207 14.8095C31.2593 14.9344 32.3012 14.6508 33.3132 14.3706C32.6541 15.1944 31.9917 16.0216 31.3326 16.8454" stroke="#CF845C" stroke-width="1.56" stroke-linecap="round" stroke-linejoin="round"/>
<path d="M22.0783 33.2636C21.8952 33.7329 21.7088 34.209 21.6655 34.7087C21.6223 35.2084 21.7388 35.752 22.0883 36.1065C22.561 36.5893 23.31 36.6197 23.9824 36.623C24.7048 36.623 25.4305 36.623 26.1528 36.623C26.8885 36.623 27.6941 36.6028 28.26 36.1267C28.7527 35.7114 28.9591 35.026 28.9424 34.3744C28.9291 33.8713 28.8026 33.3818 28.6528 32.9023" fill="url(#paint0_radial_774_47213)"/>
<path d="M19.4461 5.62242C14.8024 4.37318 9.46291 5.0687 6.29717 8.73201C3.5775 11.8787 3.05154 17.7333 5.89771 20.7618C7.37572 22.3386 10.608 23.6587 13.2278 23.5068C15.2951 23.3852 14.9855 27.923 16.5867 30.3539C18.0047 32.508 20.2351 33.6661 22.775 33.9261C25.3149 34.1861 28.1311 33.9261 30.6744 33.7032C33.637 33.4399 36.2036 32.6971 38.5438 31.2723C40.8839 29.8475 42.3287 27.8859 42.1356 23.8748C41.9225 19.4113 38.6902 17.8312 35.3814 17.0479C31.6897 16.1734 26.6398 18.4896 25.0786 14.3637C23.6405 10.5653 24.6824 7.03034 19.4428 5.62242H19.4461Z" fill="url(#paint1_radial_774_47213)"/>
<mask id="mask0_774_47213" style="mask-type:alpha" maskUnits="userSpaceOnUse" x="4" y="4" width="39" height="30">
<path d="M19.4617 5.54918C14.818 4.29994 9.47851 4.99546 6.31277 8.65877C3.5931 11.8055 3.06714 17.66 5.91331 20.6886C7.39132 22.2653 10.6236 23.5855 13.2434 23.4335C15.3107 23.312 15.0011 27.8497 16.6022 30.2807C18.0203 32.4348 20.2507 33.5929 22.7906 33.8528C25.3305 34.1128 28.1467 33.8528 30.69 33.63C33.6526 33.3666 36.2192 32.6239 38.5594 31.1991C40.8995 29.7742 42.3443 27.8126 42.1512 23.8015C41.9381 19.3381 38.7058 17.7579 35.3969 16.9746C31.7053 16.1002 26.6554 18.4163 25.0942 14.2905C23.6561 10.4921 24.698 6.9571 19.4584 5.54918H19.4617Z" fill="#99C1DE"/>
</mask>
<g mask="url(#mask0_774_47213)">
<path d="M3.66312 16.8656C5.40411 15.478 7.99066 15.2247 9.93804 16.295C10.8668 16.8082 11.689 17.6591 11.8555 18.7192C12.0152 19.7625 11.4826 20.8463 10.6404 21.4642C9.79822 22.082 8.02058 22.6053 6.99197 22.4365" stroke="#CF845C" stroke-width="1.35065" stroke-miterlimit="10"/>
</g>
<path d="M8.66628 18.4639C8.56308 18.9872 8.59637 19.5375 8.76614 20.0406" stroke="#CF845C" stroke-width="1.35065" stroke-miterlimit="10" stroke-linecap="round"/>
<path d="M6.04216 18.4639C5.93897 18.9872 5.97226 19.5375 6.14203 20.0406" stroke="#CF845C" stroke-width="1.35065" stroke-miterlimit="10" stroke-linecap="round"/>
<path d="M17.2282 8.34155C16.7655 6.8087 16.2995 5.27585 15.8368 3.743C15.687 3.24669 15.4806 2.68622 15.0012 2.50052C14.665 2.36884 14.2689 2.47689 13.9826 2.69972C13.6963 2.92256 13.4999 3.24669 13.3468 3.57757C12.5945 5.22521 12.8208 7.28814 13.9094 8.72645" stroke="#CF845C" stroke-width="1.56" stroke-miterlimit="10" stroke-linecap="round"/>
<path d="M12.9405 3.22204C11.6988 1.67907 9.43522 1.08484 7.61434 1.82087C5.79345 2.55691 4.54846 4.56244 4.68828 6.54772C4.73155 7.17234 4.89799 7.79695 4.79813 8.41144C4.67496 9.16436 4.15899 9.80249 3.54315 10.238C2.92731 10.6736 2.20828 10.9336 1.50256 11.1902C5.51383 12.409 10.0777 11.5818 13.4265 9.03269" stroke="#CF845C" stroke-width="1.56" stroke-linecap="round" stroke-linejoin="round"/>
<path d="M9.99111 14.5176C10.3312 14.5176 10.607 14.2168 10.607 13.8457C10.607 13.4746 10.3312 13.1738 9.99111 13.1738C9.65099 13.1738 9.37527 13.4746 9.37527 13.8457C9.37527 14.2168 9.65099 14.5176 9.99111 14.5176Z" fill="#CF845C"/>
<path d="M6.60909 14.5176C6.94921 14.5176 7.22493 14.2168 7.22493 13.8457C7.22493 13.4746 6.94921 13.1738 6.60909 13.1738C6.26898 13.1738 5.99326 13.4746 5.99326 13.8457C5.99326 14.2168 6.26898 14.5176 6.60909 14.5176Z" fill="#CF845C"/>
<defs>
<filter id="filter0_f_774_47213" x="2.01289" y="30.3785" width="49.2987" height="11.4803" filterUnits="userSpaceOnUse" color-interpolation-filters="sRGB">
<feFlood flood-opacity="0" result="BackgroundImageFix"/>
<feBlend mode="normal" in="SourceGraphic" in2="BackgroundImageFix" result="shape"/>
<feGaussianBlur stdDeviation="1.85714" result="effect1_foregroundBlur_774_47213"/>
</filter>
<radialGradient id="paint0_radial_774_47213" cx="0" cy="0" r="1" gradientUnits="userSpaceOnUse" gradientTransform="translate(25.3001 34.7627) rotate(90) scale(1.86035 3.64321)">
<stop stop-color="#FFC42D"/>
<stop offset="1" stop-color="#FFDB7F"/>
</radialGradient>
<radialGradient id="paint1_radial_774_47213" cx="0" cy="0" r="1" gradientUnits="userSpaceOnUse" gradientTransform="translate(23.0744 19.5428) rotate(90) scale(14.492 19.0785)">
<stop stop-color="#FFDB7F"/>
<stop offset="1" stop-color="#F6E5BA"/>
</radialGradient>
</defs>
</svg>
