<svg width="28" height="42" viewBox="0 0 28 42" fill="none" xmlns="http://www.w3.org/2000/svg">
<g style="mix-blend-mode:multiply" filter="url(#filter0_f_774_47257)">
<ellipse cx="32.6519" cy="35.7092" rx="25.1592" ry="2.43476" fill="#6F85B3"/>
</g>
<path d="M26.51 33.143C26.3069 33.6079 26.1038 34.0794 26.0539 34.5744C26.004 35.0694 26.1338 35.6078 26.52 35.9589C27.0426 36.4372 27.8649 36.4673 28.6039 36.4706C29.3995 36.4706 30.1985 36.4706 30.9941 36.4706C31.8064 36.4706 32.6919 36.4506 33.3144 35.979C33.857 35.5677 34.0834 34.8888 34.0668 34.2433C34.0534 33.745 33.9136 33.2601 33.7472 32.7852" fill="url(#paint0_radial_774_47257)"/>
<path d="M8.54015 7.23047C6.67925 8.48795 4.51541 9.92267 2.65451 11.1802C2.14851 11.5213 1.59923 11.9326 1.51267 12.5346C1.40615 13.2603 2.07194 13.9158 2.78434 14.0697C3.49674 14.2235 4.23578 14.0128 4.93486 13.8021" stroke="#CF5C82" stroke-width="1.56" stroke-linecap="round" stroke-linejoin="round"/>
<path d="M51.1877 6.95034C47.8354 2.96722 42.5889 0.990703 37.4157 0.539216C32.2425 0.0877277 28.4441 3.6896 23.2609 3.40198C15.2713 2.95718 11.22 3.97387 7.88101 8.00716C4.84166 11.6793 4.17253 17.582 5.39094 22.2006C6.72586 27.2573 10.6574 29.6652 15.0483 31.4946C19.4392 33.3239 25.8508 33.334 30.6046 33.2069C38.2912 33.0029 45.4352 30.819 51.161 25.5349C56.2011 20.8863 55.4055 11.9602 51.1877 6.947V6.95034Z" fill="url(#paint1_radial_774_47257)"/>
<path d="M14.023 11.8994C14.3631 11.8994 14.6388 11.6014 14.6388 11.2339C14.6388 10.8663 14.3631 10.5684 14.023 10.5684C13.6828 10.5684 13.4071 10.8663 13.4071 11.2339C13.4071 11.6014 13.6828 11.8994 14.023 11.8994Z" fill="#CF5C82"/>
<path d="M17.2222 11.8994C17.5623 11.8994 17.838 11.6014 17.838 11.2339C17.838 10.8663 17.5623 10.5684 17.2222 10.5684C16.882 10.5684 16.6063 10.8663 16.6063 11.2339C16.6063 11.6014 16.882 11.8994 17.2222 11.8994Z" fill="#CF5C82"/>
<path d="M7.38508 17.8551C5.87373 20.33 6.82248 23.7847 8.98299 25.711C11.1435 27.6374 14.1995 28.2527 17.0891 28.1323C19.2729 28.0387 21.4866 27.5471 23.3276 26.3598C27.5054 23.6676 28.3277 16.4037 22.9214 14.7148C18.6603 13.3837 9.98834 13.5944 7.38841 17.8518L7.38508 17.8551Z" stroke="#CF5C82" stroke-width="1.56" stroke-miterlimit="10"/>
<path d="M17.8279 22.146C18.1741 22.6811 18.8399 23.0088 19.4624 22.8884C20.1116 22.7613 20.601 22.1962 20.8573 21.5841C21.0737 21.0691 21.1636 20.4872 21.0271 19.9454C20.7707 18.9287 19.4991 18.1863 18.567 18.8652C17.6348 19.5441 17.1954 21.1761 17.8246 22.146H17.8279Z" stroke="#CF5C82" stroke-width="1.62318" stroke-miterlimit="10"/>
<path d="M13.918 21.937C13.5717 22.4721 12.906 22.7998 12.2834 22.6794C11.6343 22.5524 11.1449 21.9872 10.8886 21.3752C10.6722 20.8601 10.5823 20.2782 10.7188 19.7364C10.9751 18.7197 12.2468 17.9773 13.1789 18.6562C14.111 19.3351 14.5505 20.9671 13.9213 21.937H13.918Z" stroke="#CF5C82" stroke-width="1.62318" stroke-miterlimit="10"/>
<path d="M24.0233 9.84953C25.7111 11.622 27.4023 13.3912 29.09 15.1637C29.4795 15.5717 30.0122 16.0199 30.5415 15.8192C30.9909 15.652 31.1573 15.1102 31.2439 14.6353C31.447 13.5651 31.5568 12.4782 31.5801 11.3879C31.6068 10.1405 31.4803 8.80275 30.7046 7.8262C29.929 6.84964 28.3976 6.7259 27.1226 7.34126" stroke="#CF5C82" stroke-width="1.56" stroke-linecap="round" stroke-linejoin="round"/>
<defs>
<filter id="filter0_f_774_47257" x="3.02894" y="28.8107" width="59.2459" height="13.7966" filterUnits="userSpaceOnUse" color-interpolation-filters="sRGB">
<feFlood flood-opacity="0" result="BackgroundImageFix"/>
<feBlend mode="normal" in="SourceGraphic" in2="BackgroundImageFix" result="shape"/>
<feGaussianBlur stdDeviation="2.23187" result="effect1_foregroundBlur_774_47257"/>
</filter>
<radialGradient id="paint0_radial_774_47257" cx="0" cy="0" r="1" gradientUnits="userSpaceOnUse" gradientTransform="translate(30.0557 34.6279) rotate(90) scale(1.84274 4.01195)">
<stop stop-color="#FFB0CD"/>
<stop offset="1" stop-color="#FFD4E4"/>
</radialGradient>
<radialGradient id="paint1_radial_774_47257" cx="0" cy="0" r="1" gradientUnits="userSpaceOnUse" gradientTransform="translate(29.7342 16.8766) scale(24.8308 37.7812)">
<stop stop-color="#FFB0CD"/>
<stop offset="1" stop-color="#FAD2E1"/>
</radialGradient>
</defs>
</svg>
