<svg width="32" height="39" viewBox="0 0 32 39" fill="none" xmlns="http://www.w3.org/2000/svg">
<g style="mix-blend-mode:multiply" filter="url(#filter0_f_774_47126)">
<ellipse cx="27.5306" cy="32.9734" rx="25.1701" ry="2.04082" fill="#6F85B3"/>
</g>
<path d="M20.6932 29.7448C20.5185 30.1858 20.3405 30.6331 20.2992 31.1027C20.2579 31.5723 20.3691 32.0831 20.7028 32.4163C21.1539 32.87 21.8689 32.8985 22.5107 32.9017C23.2002 32.9017 23.8928 32.9017 24.5823 32.9017C25.2845 32.9017 26.0534 32.8827 26.5936 32.4353C27.0638 32.045 27.2608 31.401 27.2449 30.7886C27.2322 30.3159 27.1115 29.8558 26.9685 29.4053" fill="url(#paint0_radial_774_47126)"/>
<path d="M29.2435 29.4472C29.0688 29.8883 28.9544 30.4911 28.9131 30.9638C28.8718 31.4366 28.983 31.9442 29.3166 32.2774C29.7678 32.7311 30.4827 32.7596 31.1245 32.7628C31.814 32.7628 32.5067 32.7628 33.1962 32.7628C33.8984 32.7628 34.6673 32.7438 35.2074 32.2964C35.6777 31.9062 35.8747 31.2621 35.8588 30.6497C35.8461 30.177 35.7603 29.0951 35.6173 28.6445" fill="url(#paint1_radial_774_47126)"/>
<path d="M16.0003 4.18886C13.8079 4.52201 11.5107 5.02013 9.88391 6.52404C7.40875 8.81479 7.28166 12.6221 7.38969 15.9885C7.49136 19.1486 7.72331 22.5181 9.62337 25.0468C11.39 27.3978 14.31 28.594 17.1823 29.2285C22.3519 30.3739 27.7216 30.0471 33.0055 29.714C35.8969 29.5331 38.9313 29.3047 41.3588 27.7278C43.6751 26.2239 45.1399 23.6349 45.7245 20.9349C46.6618 16.5976 45.4131 11.848 42.4645 8.52607C36.2687 1.54593 24.236 2.92927 16.0003 4.18886Z" fill="url(#paint2_radial_774_47126)"/>
<path d="M14.8437 17.0196C15.1684 17.0196 15.4315 16.7369 15.4315 16.3882C15.4315 16.0395 15.1684 15.7568 14.8437 15.7568C14.5191 15.7568 14.2559 16.0395 14.2559 16.3882C14.2559 16.7369 14.5191 17.0196 14.8437 17.0196Z" fill="#5C62CF"/>
<path d="M17.8972 17.0196C18.2218 17.0196 18.485 16.7369 18.485 16.3882C18.485 16.0395 18.2218 15.7568 17.8972 15.7568C17.5725 15.7568 17.3093 16.0395 17.3093 16.3882C17.3093 16.7369 17.5725 17.0196 17.8972 17.0196Z" fill="#5C62CF"/>
<path d="M13.8747 18.8469C12.0763 19.1705 10.262 19.8558 9.04509 21.2138C7.82816 22.5717 7.37698 24.7261 8.36513 26.2617C9.44226 27.9338 11.7363 28.3272 13.7222 28.159C15.708 27.9909 17.7129 27.4325 19.6638 27.8354C21.888 28.2955 24.2615 29.498 25.9105 27.1628C26.8478 25.8366 26.9495 23.4982 26.1266 22.08C24.0803 18.555 17.284 18.2314 13.8747 18.8469Z" stroke="#5C62CF" stroke-width="1.56" stroke-linecap="round" stroke-linejoin="round"/>
<path d="M28.0997 10.8008C30.9561 11.9557 34.1081 12.365 37.1647 11.9779C36.8597 13.9736 35.2837 15.7186 33.3264 16.2231C31.3692 16.7276 29.1419 15.9693 27.9059 14.3733" stroke="#5C62CF" stroke-width="1.56" stroke-linecap="round" stroke-linejoin="round"/>
<path d="M7.51673 9.74121C5.5849 10.4234 3.52597 10.7533 1.47658 10.7153C1.81338 11.8828 2.68715 12.8854 3.79923 13.3772C4.9113 13.869 6.23944 13.85 7.33562 13.3201" stroke="#5C62CF" stroke-width="1.56" stroke-linecap="round" stroke-linejoin="round"/>
<path d="M26.1202 7.71646C25.0463 5.76203 24.2519 3.65529 23.7721 1.47559C22.6092 3.36657 22.3264 5.77472 23.0255 7.88145" stroke="#5C62CF" stroke-width="1.56" stroke-linecap="round" stroke-linejoin="round"/>
<path d="M13.0899 7.36733C12.4004 5.77459 11.7109 4.17868 11.0214 2.58594C9.8013 4.39443 9.4359 6.74864 10.0491 8.83951" stroke="#5C62CF" stroke-width="1.56" stroke-linecap="round" stroke-linejoin="round"/>
<path d="M13.5124 21.9873C13.1407 23.2215 13.1121 24.5573 13.4266 25.8073" stroke="#5C62CF" stroke-width="1.56" stroke-linecap="round" stroke-linejoin="round"/>
<path d="M19.2095 21.9824C18.7488 23.3372 18.6789 24.8221 19.0061 26.2181" stroke="#5C62CF" stroke-width="1.56" stroke-linecap="round" stroke-linejoin="round"/>
<defs>
<filter id="filter0_f_774_47126" x="-1.38095" y="27.1911" width="57.8231" height="11.565" filterUnits="userSpaceOnUse" color-interpolation-filters="sRGB">
<feFlood flood-opacity="0" result="BackgroundImageFix"/>
<feBlend mode="normal" in="SourceGraphic" in2="BackgroundImageFix" result="shape"/>
<feGaussianBlur stdDeviation="1.87075" result="effect1_foregroundBlur_774_47126"/>
</filter>
<radialGradient id="paint0_radial_774_47126" cx="0" cy="0" r="1" gradientUnits="userSpaceOnUse" gradientTransform="translate(23.7684 31.1535) rotate(90) scale(1.74821 3.47741)">
<stop stop-color="#B677EE"/>
<stop offset="1" stop-color="#B1ABF9"/>
</radialGradient>
<radialGradient id="paint1_radial_774_47126" cx="0" cy="0" r="1" gradientUnits="userSpaceOnUse" gradientTransform="translate(32.3823 30.7037) rotate(90) scale(2.05914 3.47741)">
<stop stop-color="#B677EE"/>
<stop offset="1" stop-color="#B1ABF9"/>
</radialGradient>
<radialGradient id="paint2_radial_774_47126" cx="0" cy="0" r="1" gradientUnits="userSpaceOnUse" gradientTransform="translate(26.6974 16.5942) rotate(90) scale(13.4331 19.3335)">
<stop stop-color="#C996ED"/>
<stop offset="1" stop-color="#D4D2FC"/>
</radialGradient>
</defs>
</svg>
