<svg width="24" height="24" viewBox="0 0 24 24" fill="none" xmlns="http://www.w3.org/2000/svg">
<g clip-path="url(#clip0_651_13522)">
<rect width="24" height="24" rx="6" fill="#2F56A5"/>
<g style="mix-blend-mode:multiply" filter="url(#filter0_f_651_13522)">
<ellipse cx="14.2245" cy="25.4691" rx="15.8163" ry="1.53061" fill="#6F85B3"/>
</g>
<path d="M24.7253 19.1329C25.1463 18.8437 26.1839 18.5915 27.0328 18.684C28.1624 18.8067 29.3334 18.9247 30.4124 18.566C31.9538 18.0546 33.0971 16.5135 33.1501 14.8822C33.203 13.2508 32.1608 11.6403 30.6585 11.0271C29.9937 10.7564 29.0895 10.444 29.1424 9.72437C29.1977 8.98159 30.2306 8.82424 30.9461 9.02093C33.7298 9.78685 35.6876 12.8297 35.2459 15.699C34.8042 18.5683 32.0182 20.8684 29.1355 20.7481C28.1716 20.7087 27.2238 20.4334 26.2621 20.4611C25.3005 20.4889 24.0904 20.873 23.7522 21.7824" fill="url(#paint0_linear_651_13522)"/>
<path d="M11.9319 23.8857C11.8053 24.2074 11.6765 24.5337 11.6466 24.8761C11.6167 25.2186 11.6972 25.5911 11.9388 25.8341C12.2654 26.165 12.7831 26.1858 13.2478 26.1881C13.747 26.1881 14.2485 26.1881 14.7478 26.1881C15.2562 26.1881 15.8129 26.1742 16.204 25.848C16.5445 25.5634 16.6871 25.0936 16.6756 24.647" fill="url(#paint1_linear_651_13522)"/>
<path d="M17.651 24.7716C17.6211 25.1164 17.7016 25.4866 17.9431 25.7296C18.2698 26.0605 18.7875 26.0813 19.2522 26.0836C19.7514 26.0836 20.2529 26.0836 20.7522 26.0836C21.2606 26.0836 21.8173 26.0697 22.2084 25.7434C22.5489 25.4588 22.6915 24.9891 22.68 24.5425C22.6708 24.1977 22.6087 23.4087 22.5052 23.0801" fill="url(#paint2_linear_651_13522)"/>
<path d="M2.77095 7.38719C1.61376 6.17699 -0.316425 5.79056 -1.84631 6.46624C-3.37619 7.14191 -4.39995 8.82647 -4.30103 10.5041C-4.2021 12.1817 -2.98279 13.7321 -1.38389 14.218C-0.528078 14.4795 0.486476 14.417 1.15134 13.8131" stroke="#5C62CF" stroke-width="1.17" stroke-linecap="round" stroke-linejoin="round"/>
<path d="M13.1327 2.3496C6.58982 2.24779 4.08449 4.8186 2.44878 8.05814C0.813065 11.2977 0.573805 15.7451 2.70414 18.8042C4.58601 21.5092 6.43108 21.5231 9.45174 22.8142C11.888 23.8578 14.3083 25.2832 18.2445 25.0264C21.4654 24.8158 24.532 21.9928 24.6862 19.1119C24.7943 17.0687 24.256 16.1801 23.9707 14.0721C23.2046 8.41911 18.5183 2.43522 13.1327 2.3496Z" fill="url(#paint3_radial_651_13522)"/>
<path d="M5.89277 14.1202C6.12783 14.1202 6.31838 13.914 6.31838 13.6597C6.31838 13.4054 6.12783 13.1992 5.89277 13.1992C5.65771 13.1992 5.46716 13.4054 5.46716 13.6597C5.46716 13.914 5.65771 14.1202 5.89277 14.1202Z" fill="#5C62CF"/>
<path d="M8.10359 14.1202C8.33864 14.1202 8.52919 13.914 8.52919 13.6597C8.52919 13.4054 8.33864 13.1992 8.10359 13.1992C7.86853 13.1992 7.67798 13.4054 7.67798 13.6597C7.67798 13.914 7.86853 14.1202 8.10359 14.1202Z" fill="#5C62CF"/>
<path d="M1.8092 9.43221C2.28542 8.44878 3.52544 7.88418 4.61131 7.91426C5.69718 7.94434 6.73704 8.65935 7.15805 9.66824C8.47398 8.15028 10.6802 7.62501 12.6518 7.97905C15.217 8.43721 17.4876 10.3023 18.447 12.7365C19.4063 15.1708 19.0267 18.0957 17.4715 20.1967C15.9163 22.2978 13.4501 23.3831 10.8551 23.1609" stroke="#5C62CF" stroke-width="1.17" stroke-linecap="round" stroke-linejoin="round"/>
<path d="M6.92346 14.7148L6.86365 17.996" stroke="#5C62CF" stroke-width="1.02041" stroke-linecap="round" stroke-linejoin="round"/>
<path d="M18.4769 9.36965C19.243 7.61799 21.0973 6.40779 22.9999 6.41704C24.9024 6.4263 26.7452 7.65501 27.4929 9.41362C27.9254 10.4271 28.0036 11.6073 27.6217 12.6416C27.1524 13.9189 26.0205 14.8815 24.7437 15.335C23.4669 15.7886 22.0658 15.7793 20.7361 15.5202" stroke="#5C62CF" stroke-width="1.17" stroke-linecap="round" stroke-linejoin="round"/>
</g>
<defs>
<filter id="filter0_f_651_13522" x="-4.39792" y="21.1324" width="37.2449" height="8.67377" filterUnits="userSpaceOnUse" color-interpolation-filters="sRGB">
<feFlood flood-opacity="0" result="BackgroundImageFix"/>
<feBlend mode="normal" in="SourceGraphic" in2="BackgroundImageFix" result="shape"/>
<feGaussianBlur stdDeviation="1.40306" result="effect1_foregroundBlur_651_13522"/>
</filter>
<linearGradient id="paint0_linear_651_13522" x1="29.5302" y1="8.94336" x2="29.5302" y2="21.7824" gradientUnits="userSpaceOnUse">
<stop stop-color="#94C7E4"/>
<stop offset="1" stop-color="#B1CCDB"/>
</linearGradient>
<linearGradient id="paint1_linear_651_13522" x1="14.1585" y1="23.8857" x2="14.1585" y2="26.1881" gradientUnits="userSpaceOnUse">
<stop stop-color="#94C7E4"/>
<stop offset="1" stop-color="#B1CCDB"/>
</linearGradient>
<linearGradient id="paint2_linear_651_13522" x1="20.1628" y1="23.0801" x2="20.1628" y2="26.0836" gradientUnits="userSpaceOnUse">
<stop stop-color="#94C7E4"/>
<stop offset="1" stop-color="#B1CCDB"/>
</linearGradient>
<radialGradient id="paint3_radial_651_13522" cx="0" cy="0" r="1" gradientUnits="userSpaceOnUse" gradientTransform="translate(12.9322 13.7017) rotate(90) scale(11.3551 11.7681)">
<stop stop-color="#B0D5EB"/>
<stop offset="1" stop-color="#D6E2E9"/>
</radialGradient>
<clipPath id="clip0_651_13522">
<rect width="24" height="24" rx="6" fill="white"/>
</clipPath>
</defs>
</svg>
