<svg width="24" height="24" viewBox="0 0 24 24" fill="none" xmlns="http://www.w3.org/2000/svg">
<g clip-path="url(#clip0_651_13555)">
<rect width="24" height="24" rx="6" fill="#2F56A5"/>
<g style="mix-blend-mode:multiply" filter="url(#filter0_f_651_13555)">
<ellipse cx="24.261" cy="27.7821" rx="18.8694" ry="1.82607" fill="#6F85B3"/>
</g>
<path d="M6.17725 6.42285C4.78158 7.36596 3.1587 8.44201 1.76303 9.38511C1.38352 9.64096 0.971561 9.94947 0.906646 10.401C0.826751 10.9453 1.3261 11.4369 1.8604 11.5523C2.3947 11.6676 2.94897 11.5096 3.47329 11.3516" stroke="#CF5C82" stroke-width="1.17" stroke-linecap="round" stroke-linejoin="round"/>
<path d="M38.1629 6.21276C35.6487 3.22541 31.7138 1.74303 27.8339 1.40441C23.954 1.0658 21.1052 3.7672 17.2178 3.55149C11.2256 3.21789 8.1871 3.9804 5.68288 7.00537C3.40336 9.75945 2.90152 14.1865 3.81532 17.6505C4.81651 21.4429 7.76515 23.2489 11.0583 24.6209C14.3515 25.9929 19.1602 26.0005 22.7256 25.9052C28.4905 25.7522 33.8485 24.1143 38.1429 20.1512C41.923 16.6647 41.3262 9.97014 38.1629 6.21025V6.21276Z" fill="url(#paint0_radial_651_13555)"/>
<path d="M10.2893 9.92505C10.5444 9.92505 10.7512 9.70157 10.7512 9.4259C10.7512 9.15023 10.5444 8.92676 10.2893 8.92676C10.0342 8.92676 9.82739 9.15023 9.82739 9.4259C9.82739 9.70157 10.0342 9.92505 10.2893 9.92505Z" fill="#CF5C82"/>
<path d="M12.6887 9.92505C12.9438 9.92505 13.1506 9.70157 13.1506 9.4259C13.1506 9.15023 12.9438 8.92676 12.6887 8.92676C12.4336 8.92676 12.2268 9.15023 12.2268 9.4259C12.2268 9.70157 12.4336 9.92505 12.6887 9.92505Z" fill="#CF5C82"/>
<path d="M5.31088 14.3918C4.17737 16.248 4.88894 18.839 6.50931 20.2838C8.12969 21.7285 10.4217 22.19 12.5889 22.0997C14.2267 22.0295 15.887 21.6608 17.2677 20.7704C20.4011 18.7512 21.0178 13.3033 16.9631 12.0366C13.7673 11.0383 7.26333 11.1963 5.31338 14.3893L5.31088 14.3918Z" stroke="#CF5C82" stroke-width="1.17" stroke-miterlimit="10"/>
<path d="M13.143 17.61C13.4027 18.0113 13.902 18.2571 14.3689 18.1668C14.8558 18.0715 15.2228 17.6476 15.415 17.1886C15.5773 16.8023 15.6447 16.3659 15.5424 15.9595C15.3501 15.197 14.3964 14.6402 13.6973 15.1494C12.9982 15.6585 12.6686 16.8826 13.1405 17.61H13.143Z" stroke="#CF5C82" stroke-width="1.21738" stroke-miterlimit="10"/>
<path d="M10.2106 17.4528C9.95096 17.8541 9.45161 18.0999 8.98472 18.0096C8.49786 17.9143 8.13084 17.4904 7.93859 17.0314C7.7763 16.6451 7.70889 16.2087 7.81126 15.8023C8.00351 15.0398 8.95726 14.483 9.65634 14.9921C10.3554 15.5013 10.685 16.7254 10.2131 17.4528H10.2106Z" stroke="#CF5C82" stroke-width="1.21738" stroke-miterlimit="10"/>
<path d="M17.7896 8.38715C19.0554 9.71653 20.3237 11.0434 21.5896 12.3728C21.8817 12.6788 22.2812 13.0149 22.6782 12.8644C23.0152 12.739 23.14 12.3327 23.205 11.9765C23.3573 11.1738 23.4397 10.3586 23.4571 9.54095C23.4771 8.60537 23.3822 7.60206 22.8005 6.86965C22.2188 6.13723 21.0703 6.04443 20.114 6.50595" stroke="#CF5C82" stroke-width="1.17" stroke-linecap="round" stroke-linejoin="round"/>
</g>
<defs>
<filter id="filter0_f_651_13555" x="2.0438" y="22.6083" width="44.4344" height="10.3479" filterUnits="userSpaceOnUse" color-interpolation-filters="sRGB">
<feFlood flood-opacity="0" result="BackgroundImageFix"/>
<feBlend mode="normal" in="SourceGraphic" in2="BackgroundImageFix" result="shape"/>
<feGaussianBlur stdDeviation="1.6739" result="effect1_foregroundBlur_651_13555"/>
</filter>
<radialGradient id="paint0_radial_651_13555" cx="0" cy="0" r="1" gradientUnits="userSpaceOnUse" gradientTransform="translate(22.0728 13.6575) scale(18.6231 28.3359)">
<stop stop-color="#FFB0CD"/>
<stop offset="1" stop-color="#FAD2E1"/>
</radialGradient>
<clipPath id="clip0_651_13555">
<rect width="24" height="24" rx="6" fill="white"/>
</clipPath>
</defs>
</svg>
