<svg width="24" height="24" viewBox="0 0 24 24" fill="none" xmlns="http://www.w3.org/2000/svg">
<g clip-path="url(#clip0_651_13511)">
<rect width="24" height="24" rx="6" fill="#2F56A5"/>
<path d="M4.64221 9.35645C4.16778 9.85278 3.69335 10.0533 3.04842 10.2929C2.4035 10.5325 1.72397 10.9726 1.64243 11.6498C1.59301 12.0582 1.7981 12.4885 2.14898 12.7085C2.49986 12.9286 3.26093 12.7965 3.61428 12.5765" stroke="#5C62CF" stroke-width="1.17" stroke-linecap="round" stroke-linejoin="round"/>
<g style="mix-blend-mode:multiply" filter="url(#filter0_f_651_13511)">
<ellipse cx="19.3937" cy="25.5" rx="15.6136" ry="1.5" fill="#6F85B3"/>
</g>
<path d="M13.6169 23.4648C13.481 23.8047 13.3426 24.1494 13.3105 24.5113C13.2784 24.8732 13.3648 25.2668 13.6243 25.5235C13.9752 25.8732 14.5311 25.8952 15.0303 25.8976C15.5665 25.8976 16.1052 25.8976 16.6414 25.8976C17.1875 25.8976 17.7854 25.8829 18.2055 25.5382C18.5712 25.2375 18.7244 24.7411 18.712 24.2692C18.7071 24.0688 18.675 23.8707 18.6305 23.6751" fill="url(#paint0_radial_651_13511)"/>
<path d="M20.1105 23.763C20.0611 23.9831 20.0289 24.208 20.0116 24.4036C19.9795 24.7679 20.066 25.1591 20.3255 25.4158C20.6763 25.7655 21.2323 25.7875 21.7315 25.7899C22.2677 25.7899 22.8063 25.7899 23.3425 25.7899C23.8886 25.7899 24.4866 25.7752 24.9067 25.4305C25.2724 25.1298 25.4256 24.6334 25.4132 24.1616C25.4083 23.9439 25.3811 23.5576 25.3366 23.208" fill="url(#paint1_radial_651_13511)"/>
<path d="M17.2442 2.37144C12.5 2.25652 7.59505 4.47657 5.16113 8.50591C2.72721 12.5353 3.29306 18.303 6.91059 21.3421C9.2259 23.2859 12.369 23.946 15.396 24.1832C18.7343 24.4448 23.6787 24.5304 26.8663 23.5108C32.3024 21.7724 35.9447 14.3421 31.917 9.11227C29.2829 5.68929 21.4647 2.47168 17.2442 2.37144Z" fill="url(#paint2_radial_651_13511)"/>
<path d="M6.00867 13.7406C7.32076 14.0194 8.76135 15.8996 7.64446 17.1685C8.95408 15.682 11.6326 15.7186 12.9002 17.2394C12.5667 15.6868 13.9998 14.0218 15.601 14.1C13.6712 14.4032 12.6359 11.9827 14.0344 10.7357C13.4043 11.1612 12.3665 11.2199 11.7389 10.792C11.1113 10.3641 10.795 9.53281 10.9753 8.80176C10.9902 9.64283 10.4861 10.4717 9.7275 10.8482C8.96891 11.2247 7.99534 11.1343 7.32076 10.6208C7.77295 11.2027 7.85449 12.0438 7.52091 12.6991C7.18733 13.3543 6.74996 13.7553 6.00867 13.7406Z" fill="#F2EDFB" stroke="#5C62CF" stroke-width="1.17" stroke-linecap="round" stroke-linejoin="round"/>
<path d="M8.92942 13.9555C9.18189 13.9555 9.38656 13.7377 9.38656 13.469C9.38656 13.2003 9.18189 12.9824 8.92942 12.9824C8.67696 12.9824 8.47229 13.2003 8.47229 13.469C8.47229 13.7377 8.67696 13.9555 8.92942 13.9555Z" fill="#5C62CF"/>
<path d="M11.0569 13.9555C11.3093 13.9555 11.514 13.7377 11.514 13.469C11.514 13.2003 11.3093 12.9824 11.0569 12.9824C10.8044 12.9824 10.5997 13.2003 10.5997 13.469C10.5997 13.7377 10.8044 13.9555 11.0569 13.9555Z" fill="#5C62CF"/>
<path d="M18.3611 10.2617C18.7194 10.6798 19.2532 10.8143 19.7795 10.9243C20.3058 11.0343 20.8988 11.2617 21.0496 11.7727C21.1509 12.1126 21.0051 12.4891 20.758 12.7434C20.5109 12.9977 20.1699 13.1468 19.8289 13.2544C18.5193 13.6627 17.2838 13.494 16.1027 12.8021" stroke="#5C62CF" stroke-width="1.17" stroke-linecap="round" stroke-linejoin="round"/>
</g>
<defs>
<filter id="filter0_f_651_13511" x="0.506342" y="20.7262" width="37.7747" height="9.54762" filterUnits="userSpaceOnUse" color-interpolation-filters="sRGB">
<feFlood flood-opacity="0" result="BackgroundImageFix"/>
<feBlend mode="normal" in="SourceGraphic" in2="BackgroundImageFix" result="shape"/>
<feGaussianBlur stdDeviation="1.6369" result="effect1_foregroundBlur_651_13511"/>
</filter>
<radialGradient id="paint0_radial_651_13511" cx="0" cy="0" r="1" gradientUnits="userSpaceOnUse" gradientTransform="translate(16.0084 24.6812) rotate(90) scale(1.21638 2.70433)">
<stop stop-color="#B677EE"/>
<stop offset="1" stop-color="#B1ABF9"/>
</radialGradient>
<radialGradient id="paint1_radial_651_13511" cx="0" cy="0" r="1" gradientUnits="userSpaceOnUse" gradientTransform="translate(22.7096 24.499) rotate(90) scale(1.29095 2.70433)">
<stop stop-color="#B677EE"/>
<stop offset="1" stop-color="#B1ABF9"/>
</radialGradient>
<radialGradient id="paint2_radial_651_13511" cx="0" cy="0" r="1" gradientUnits="userSpaceOnUse" gradientTransform="translate(18.6567 13.3607) rotate(90) scale(10.9935 14.9732)">
<stop stop-color="#C996ED"/>
<stop offset="1" stop-color="#D4D2FC"/>
</radialGradient>
<clipPath id="clip0_651_13511">
<rect width="24" height="24" rx="6" fill="white"/>
</clipPath>
</defs>
</svg>
