<svg width="36" height="30" viewBox="0 0 36 30" fill="none" xmlns="http://www.w3.org/2000/svg">
    <path d="M6.18961 10.4766C5.55704 11.1383 4.92447 11.4057 4.06456 11.7251C3.20466 12.0446 2.29863 12.6314 2.18991 13.5344C2.12402 14.0788 2.39747 14.6526 2.86531 14.946C3.33315 15.2394 4.3479 15.0634 4.81904 14.77" stroke="#5C62CF" stroke-width="1.56" stroke-linecap="round" stroke-linejoin="round"/>
    <g style="mix-blend-mode:multiply" filter="url(#filter0_f_813_19846)">
        <ellipse cx="25.8584" cy="32" rx="20.8181" ry="2" fill="#6F85B3"/>
    </g>
    <path d="M18.1558 29.2871C17.9746 29.7402 17.7901 30.1999 17.7473 30.6824C17.7045 31.1649 17.8198 31.6897 18.1657 32.032C18.6336 32.4982 19.3749 32.5275 20.0404 32.5308C20.7553 32.5308 21.4735 32.5308 22.1885 32.5308C22.9166 32.5308 23.7139 32.5112 24.274 32.0516C24.7616 31.6506 24.9659 30.9888 24.9494 30.3596C24.9428 30.0923 24.9 29.8283 24.8407 29.5675" fill="url(#paint0_radial_813_19846)"/>
    <path d="M26.8141 29.6853C26.7482 29.9787 26.7054 30.2786 26.6824 30.5394C26.6395 31.0252 26.7548 31.5468 27.1008 31.8891C27.5686 32.3553 28.3099 32.3846 28.9754 32.3879C29.6904 32.3879 30.4086 32.3879 31.1235 32.3879C31.8517 32.3879 32.649 32.3683 33.2091 31.9086C33.6967 31.5077 33.9009 30.8459 33.8845 30.2167C33.8779 29.9266 33.8416 29.4115 33.7823 28.9453" fill="url(#paint1_radial_813_19846)"/>
    <path d="M22.9922 1.16192C16.6664 1.0087 10.1266 3.96876 6.88134 9.34122C3.63611 14.7137 4.39059 22.404 9.21395 26.4561C12.301 29.0478 16.4918 29.928 20.5278 30.2442C24.9788 30.5931 31.5714 30.7072 35.8215 29.3477C43.0698 27.0299 47.9261 17.1228 42.5558 10.1497C39.0437 5.58571 28.6194 1.29558 22.9922 1.16192Z" fill="url(#paint2_radial_813_19846)"/>
    <path d="M8.01172 16.3215C9.76118 16.6931 11.682 19.2001 10.1928 20.892C11.9389 18.9099 15.5103 18.9588 17.2005 20.9865C16.7557 18.9164 18.6666 16.6964 20.8015 16.8007C18.2284 17.205 16.848 13.9776 18.7127 12.315C17.8726 12.8822 16.4888 12.9605 15.652 12.39C14.8152 11.8195 14.3935 10.7111 14.634 9.73633C14.6537 10.8578 13.9816 11.9629 12.9702 12.4649C11.9587 12.967 10.6606 12.8464 9.76118 12.1618C10.3641 12.9376 10.4728 14.0591 10.028 14.9327C9.58327 15.8064 9.00011 16.3411 8.01172 16.3215Z" fill="#F2EDFB" stroke="#5C62CF" stroke-width="1.56" stroke-linecap="round" stroke-linejoin="round"/>
    <path d="M11.9059 16.608C12.2425 16.608 12.5154 16.3176 12.5154 15.9593C12.5154 15.601 12.2425 15.3105 11.9059 15.3105C11.5693 15.3105 11.2964 15.601 11.2964 15.9593C11.2964 16.3176 11.5693 16.608 11.9059 16.608Z" fill="#5C62CF"/>
    <path d="M14.7426 16.608C15.0792 16.608 15.3521 16.3176 15.3521 15.9593C15.3521 15.601 15.0792 15.3105 14.7426 15.3105C14.4059 15.3105 14.1331 15.601 14.1331 15.9593C14.1331 16.3176 14.4059 16.608 14.7426 16.608Z" fill="#5C62CF"/>
    <path d="M24.4815 11.6836C24.9592 12.2411 25.6709 12.4203 26.3727 12.567C27.0744 12.7137 27.8651 13.0169 28.0661 13.6983C28.2012 14.1514 28.0068 14.6534 27.6773 14.9925C27.3479 15.3315 26.8932 15.5304 26.4385 15.6738C24.6924 16.2182 23.0451 15.9933 21.4702 15.0707" stroke="#5C62CF" stroke-width="1.56" stroke-linecap="round" stroke-linejoin="round"/>
    <defs>
        <filter id="filter0_f_813_19846" x="0.675204" y="25.6349" width="50.3664" height="12.7302" filterUnits="userSpaceOnUse" color-interpolation-filters="sRGB">
            <feFlood flood-opacity="0" result="BackgroundImageFix"/>
            <feBlend mode="normal" in="SourceGraphic" in2="BackgroundImageFix" result="shape"/>
            <feGaussianBlur stdDeviation="2.18254" result="effect1_foregroundBlur_813_19846"/>
        </filter>
        <radialGradient id="paint0_radial_813_19846" cx="0" cy="0" r="1" gradientUnits="userSpaceOnUse" gradientTransform="translate(21.3445 30.909) rotate(90) scale(1.62184 3.60577)">
            <stop stop-color="#B677EE"/>
            <stop offset="1" stop-color="#B1ABF9"/>
        </radialGradient>
        <radialGradient id="paint1_radial_813_19846" cx="0" cy="0" r="1" gradientUnits="userSpaceOnUse" gradientTransform="translate(30.2796 30.6666) rotate(90) scale(1.72127 3.60577)">
            <stop stop-color="#B677EE"/>
            <stop offset="1" stop-color="#B1ABF9"/>
        </radialGradient>
        <radialGradient id="paint2_radial_813_19846" cx="0" cy="0" r="1" gradientUnits="userSpaceOnUse" gradientTransform="translate(24.8754 15.8143) rotate(90) scale(14.658 19.9643)">
            <stop stop-color="#C996ED"/>
            <stop offset="1" stop-color="#D4D2FC"/>
        </radialGradient>
    </defs>
</svg>
