<svg width="38" height="31" viewBox="0 0 38 31" fill="none" xmlns="http://www.w3.org/2000/svg">
    <g style="mix-blend-mode:multiply" filter="url(#filter0_f_813_19898)">
        <ellipse cx="32.3482" cy="36.0441" rx="25.1592" ry="2.43476" fill="#6F85B3"/>
    </g>
    <path d="M36.7045 32.3C36.5018 32.8968 36.3711 33.7125 36.3253 34.3522C36.2795 34.9918 36.407 35.6787 36.7895 36.1295C37.3093 36.7434 38.1298 36.7821 38.8654 36.7864C39.6598 36.7864 40.4509 36.7864 41.2453 36.7864C42.0527 36.7864 42.9354 36.7606 43.5565 36.1553C44.0992 35.6272 44.3215 34.7557 44.3051 33.9271C44.292 33.2875 44.194 31.8235 44.0272 31.2139C43.9128 30.7889 43.769 30.5227 43.6546 30.0977" fill="url(#paint0_radial_813_19898)"/>
    <path d="M8.2365 7.56445C6.3756 8.82193 4.21176 10.2567 2.35086 11.5141C1.84486 11.8553 1.29558 12.2666 1.20902 12.8686C1.1025 13.5943 1.76829 14.2498 2.48069 14.4037C3.1931 14.5575 3.93213 14.3468 4.63121 14.1361" stroke="#CF5C82" stroke-width="1.56" stroke-linecap="round" stroke-linejoin="round"/>
    <path d="M50.884 7.28433C47.5317 3.3012 42.2853 1.32469 37.112 0.8732C31.9388 0.421712 28.1404 4.02358 22.9572 3.73597C14.9677 3.29117 10.9163 4.30785 7.57733 8.34114C4.53798 12.0132 3.86885 17.916 5.08726 22.5346C6.42218 27.5912 10.3537 29.9992 14.7446 31.8285C19.1355 33.6579 25.5472 33.6679 30.3009 33.5409C37.9875 33.3369 45.1315 31.153 50.8574 25.8689C55.8974 21.2203 55.1018 12.2942 50.884 7.28098V7.28433Z" fill="url(#paint1_radial_813_19898)"/>
    <path d="M13.7191 12.2334C14.0593 12.2334 14.335 11.9354 14.335 11.5679C14.335 11.2003 14.0593 10.9023 13.7191 10.9023C13.379 10.9023 13.1033 11.2003 13.1033 11.5679C13.1033 11.9354 13.379 12.2334 13.7191 12.2334Z" fill="#CF5C82"/>
    <path d="M16.9184 12.2334C17.2585 12.2334 17.5342 11.9354 17.5342 11.5679C17.5342 11.2003 17.2585 10.9023 16.9184 10.9023C16.5782 10.9023 16.3025 11.2003 16.3025 11.5679C16.3025 11.9354 16.5782 12.2334 16.9184 12.2334Z" fill="#CF5C82"/>
    <path d="M7.08134 18.1891C5.56998 20.6639 6.51874 24.1187 8.67925 26.045C10.8398 27.9714 13.8958 28.5867 16.7853 28.4663C18.9691 28.3727 21.1829 27.8811 23.0238 26.6938C27.2017 24.0016 28.0239 16.7377 22.6177 15.0488C18.3566 13.7177 9.6846 13.9284 7.08467 18.1858L7.08134 18.1891Z" stroke="#CF5C82" stroke-width="1.56" stroke-miterlimit="10"/>
    <path d="M17.524 22.48C17.8702 23.0151 18.536 23.3428 19.1586 23.2224C19.8077 23.0953 20.2971 22.5301 20.5534 21.9181C20.7698 21.4031 20.8597 20.8212 20.7232 20.2794C20.4668 19.2627 19.1952 18.5203 18.2631 19.1992C17.3309 19.8781 16.8915 21.5101 17.5207 22.48H17.524Z" stroke="#CF5C82" stroke-width="1.62318" stroke-miterlimit="10"/>
    <path d="M13.6142 22.271C13.2679 22.8061 12.6021 23.1338 11.9796 23.0134C11.3305 22.8863 10.8411 22.3212 10.5848 21.7091C10.3684 21.1941 10.2785 20.6122 10.415 20.0704C10.6713 19.0537 11.943 18.3113 12.8751 18.9902C13.8072 19.6691 14.2467 21.3011 13.6175 22.271H13.6142Z" stroke="#CF5C82" stroke-width="1.62318" stroke-miterlimit="10"/>
    <path d="M23.7197 10.1835C25.4075 11.956 27.0986 13.7252 28.7864 15.4977C29.1759 15.9057 29.7086 16.3538 30.2379 16.1532C30.6873 15.986 30.8537 15.4442 30.9403 14.9693C31.1433 13.8991 31.2532 12.8122 31.2765 11.7219C31.3031 10.4745 31.1766 9.13673 30.401 8.16018C29.6253 7.18363 28.094 7.05989 26.819 7.67525" stroke="#CF5C82" stroke-width="1.56" stroke-linecap="round" stroke-linejoin="round"/>
    <defs>
        <filter id="filter0_f_813_19898" x="2.72523" y="29.1456" width="59.2458" height="13.7966" filterUnits="userSpaceOnUse" color-interpolation-filters="sRGB">
            <feFlood flood-opacity="0" result="BackgroundImageFix"/>
            <feBlend mode="normal" in="SourceGraphic" in2="BackgroundImageFix" result="shape"/>
            <feGaussianBlur stdDeviation="2.23187" result="effect1_foregroundBlur_813_19898"/>
        </filter>
        <radialGradient id="paint0_radial_813_19898" cx="0" cy="0" r="1" gradientUnits="userSpaceOnUse" gradientTransform="translate(40.3112 33.442) rotate(90) scale(3.34436 3.99477)">
            <stop stop-color="#FFB0CD"/>
            <stop offset="1" stop-color="#FFD4E4"/>
        </radialGradient>
        <radialGradient id="paint1_radial_813_19898" cx="0" cy="0" r="1" gradientUnits="userSpaceOnUse" gradientTransform="translate(29.4305 17.2106) scale(24.8308 37.7812)">
            <stop stop-color="#FFB0CD"/>
            <stop offset="1" stop-color="#FAD2E1"/>
        </radialGradient>
    </defs>
</svg>
