<svg width="40" height="30" viewBox="0 0 40 30" fill="none" xmlns="http://www.w3.org/2000/svg">
    <g style="mix-blend-mode:multiply" filter="url(#filter0_f_813_19758)">
        <ellipse cx="27.6365" cy="31.9416" rx="22.5455" ry="2.18182" fill="#6F85B3"/>
    </g>
    <path d="M7.7223 9.93116C6.85347 10.1329 5.99981 9.61527 5.22203 9.18139C4.44425 8.74752 3.45401 8.38596 2.6952 8.8617C2.02745 9.28415 1.85292 10.2547 2.19059 10.974C2.52826 11.6933 3.25672 12.1576 4.01932 12.3631C4.78192 12.5686 5.58246 12.5496 6.37162 12.5268" stroke="#5C62CF" stroke-width="1.56" stroke-linecap="round" stroke-linejoin="round"/>
    <path d="M20.1487 26.9277C19.939 27.5657 19.7255 28.2129 19.6759 28.8923C19.6263 29.5716 19.7598 30.3106 20.1602 30.7925C20.7017 31.4489 21.5597 31.4902 22.33 31.4948C23.1575 31.4948 23.9888 31.4948 24.8163 31.4948C25.659 31.4948 26.5818 31.4673 27.2301 30.8201C27.7945 30.2555 28.0309 29.3237 28.0118 28.4379C28.0042 28.0615 27.9546 27.6897 27.886 27.3225" fill="url(#paint0_radial_813_19758)"/>
    <path d="M30.2666 28.0115C30.1907 28.3541 30.1414 28.7042 30.1148 29.0087C30.0655 29.5758 30.1983 30.1847 30.5966 30.5843C31.1354 31.1286 31.9891 31.1628 32.7555 31.1666C33.5788 31.1666 34.4059 31.1666 35.2292 31.1666C36.0676 31.1666 36.9858 31.1438 37.6308 30.6072C38.1923 30.139 38.4275 29.3664 38.4086 28.6319C38.3934 28.0648 38.291 26.767 38.1202 26.2266" fill="url(#paint1_radial_813_19758)"/>
    <path d="M36.8145 2.30573C34.6206 1.68104 33.322 1.29231 31.189 1.27149C27.4553 1.23593 23.7587 2.0696 20.091 2.77188C17.1416 3.33408 14.1694 4.04721 11.5639 5.54774C8.95842 7.04828 6.73809 9.44449 6.06733 12.3821C5.07234 16.7416 7.75422 21.2851 11.4504 23.7834C15.1504 26.2821 19.6734 27.1524 24.0751 27.8647C27.9169 28.4848 31.9099 29.0171 35.6482 27.9347C40.141 26.6348 43.8711 22.8876 45.0542 18.3554C45.9157 15.0582 45.7862 11.0789 44.095 8.12982C42.5921 5.50801 39.8238 3.16793 36.8104 2.30923L36.8145 2.30573Z" fill="url(#paint2_radial_813_19758)"/>
    <path d="M9.81664 16.4679C10.2043 16.4679 10.5185 16.1288 10.5185 15.7105C10.5185 15.2922 10.2043 14.9531 9.81664 14.9531C9.429 14.9531 9.11475 15.2922 9.11475 15.7105C9.11475 16.1288 9.429 16.4679 9.81664 16.4679Z" fill="#5C62CF"/>
    <path d="M13.4626 16.4679C13.8503 16.4679 14.1645 16.1288 14.1645 15.7105C14.1645 15.2922 13.8503 14.9531 13.4626 14.9531C13.075 14.9531 12.7607 15.2922 12.7607 15.7105C12.7607 16.1288 13.075 16.4679 13.4626 16.4679Z" fill="#5C62CF"/>
    <path d="M11.653 20.7978C12.4043 21.3725 13.2617 21.8825 14.2064 21.9358C15.1511 21.989 16.1831 21.4524 16.4259 20.5352C16.646 19.7093 16.1679 18.8149 15.4736 18.3202C14.7793 17.8254 13.9105 17.6427 13.0644 17.5285C11.8465 17.3649 10.5452 17.323 9.46009 17.8977C8.375 18.4724 7.63136 19.8577 8.13977 20.9767C8.45088 21.6655 9.21348 22.1261 9.96849 22.0804C10.7235 22.0347 11.4216 21.4905 11.653 20.7674" stroke="#5C62CF" stroke-width="1.56" stroke-linecap="round" stroke-linejoin="round"/>
    <path d="M22.3596 10.6458L25.4176 9.13483C25.8501 8.9217 26.3206 8.70095 26.7986 8.77707C27.5954 8.90647 28.0544 9.86556 27.8761 10.6572C27.6978 11.4488 27.068 12.0578 26.3851 12.4916C25.1596 13.268 23.6799 13.6296 22.2344 13.5002" stroke="#5C62CF" stroke-width="1.56" stroke-linecap="round" stroke-linejoin="round"/>
    <path d="M16.6231 4.39844C15.6025 4.90843 14.6616 5.57446 13.8459 6.3737C11.873 8.31851 10.6779 11.0397 10.583 13.8142" stroke="#5C62CF" stroke-width="1.56" stroke-linecap="round" stroke-linejoin="round"/>
    <path d="M14.7781 8.12081C13.1884 7.86962 11.5532 7.90007 9.97485 8.21596" stroke="#5C62CF" stroke-width="1.56" stroke-linecap="round" stroke-linejoin="round"/>
    <path d="M14.1063 11.7647L9.32202 11.6543C9.42825 11.6657 9.53069 11.6733 9.63693 11.6847" stroke="#5C62CF" stroke-width="1.56" stroke-linecap="round" stroke-linejoin="round"/>
    <path d="M26.6509 1.92969C28.6845 2.76318 30.4108 4.31979 31.4617 6.257C32.5127 8.1942 32.8693 10.493 32.4595 12.6585" stroke="#5C62CF" stroke-width="1.56" stroke-linecap="round" stroke-linejoin="round"/>
    <path d="M33.2449 1.58398C36.7316 3.75715 38.659 8.19483 37.8698 12.2367" stroke="#5C62CF" stroke-width="1.45455" stroke-linecap="round" stroke-linejoin="round"/>
    <defs>
        <filter id="filter0_f_813_19758" x="1.09106" y="25.7598" width="53.0908" height="12.3633" filterUnits="userSpaceOnUse" color-interpolation-filters="sRGB">
            <feFlood flood-opacity="0" result="BackgroundImageFix"/>
            <feBlend mode="normal" in="SourceGraphic" in2="BackgroundImageFix" result="shape"/>
            <feGaussianBlur stdDeviation="2" result="effect1_foregroundBlur_813_19758"/>
        </filter>
        <radialGradient id="paint0_radial_813_19758" cx="0" cy="0" r="1" gradientUnits="userSpaceOnUse" gradientTransform="translate(23.8395 29.2113) rotate(90) scale(2.28354 4.17344)">
            <stop stop-color="#7DC0E6"/>
            <stop offset="1" stop-color="#B1CCDB"/>
        </radialGradient>
        <radialGradient id="paint1_radial_813_19758" cx="0" cy="0" r="1" gradientUnits="userSpaceOnUse" gradientTransform="translate(34.2573 28.6966) rotate(90) scale(2.47003 4.15232)">
            <stop stop-color="#7DC0E6"/>
            <stop offset="1" stop-color="#B1CCDB"/>
        </radialGradient>
        <radialGradient id="paint2_radial_813_19758" cx="0" cy="0" r="1" gradientUnits="userSpaceOnUse" gradientTransform="translate(25.7078 14.5292) rotate(94.3175) scale(13.6707 19.8384)">
            <stop stop-color="#BBDEF3"/>
            <stop offset="1" stop-color="#D6E2E9"/>
        </radialGradient>
    </defs>
</svg>
