<svg width="38" height="32" viewBox="0 0 38 32" fill="none" xmlns="http://www.w3.org/2000/svg">
    <path d="M14.7716 26.3418C13.715 26.4547 12.6909 26.8825 11.8645 27.5539C11.5398 27.8183 11.2181 28.1956 11.2978 28.6085C11.3834 29.0512 11.9147 29.2799 12.3544 29.1997C12.7942 29.1195 13.1572 28.8195 13.4996 28.5283" stroke="#5C8ECF" stroke-width="1.20635" stroke-linecap="round" stroke-linejoin="round"/>
    <path d="M15.2606 19.3026L22.4739 19.1719L24.8675 23.8925L21.3907 32.805L25.2098 36.5839C22.9579 36.6373 20.1452 36.6849 17.9966 36.0016C15.848 35.3183 13.844 33.7646 13.2242 31.5869C12.8434 30.2441 13.0235 28.7765 13.5813 27.4991C14.1391 26.2216 15.0511 24.8996 15.904 23.6459L15.2606 19.3026Z" fill="url(#paint0_linear_813_19794)"/>
    <path d="M9.03895 25.0506C5.70976 24.0138 3.73527 20.1933 4.1219 16.7056C4.50854 13.2208 6.849 10.1846 9.73548 8.22091C14.6142 4.9025 21.4939 4.44202 26.3608 7.77529C29.3594 9.8311 31.4342 13.2 31.9271 16.8185C32.42 20.4369 31.3221 24.2426 28.9846 27.0351C27.9103 28.3185 26.5998 29.3821 25.5285 30.6685C24.8674 31.4646 24.2741 32.445 24.404 33.4729C24.5604 34.7088 25.6613 35.3208 26.8743 35.5555C28.0873 35.7902 29.1056 35.8199 30.3422 35.8288C31.6822 35.8377 33.0723 35.6565 34.3089 35.4663C30.717 36.8062 26.7946 37.231 23.005 36.6933C21.9012 36.5358 20.7383 36.2625 19.9562 35.4634C18.7048 34.1889 18.8907 32.0529 19.6256 30.4219C20.4698 28.5503 22.0251 26.8925 22.3705 24.813C22.6272 23.2622 21.9189 21.1707 20.0566 21.5985C18.4303 21.9729 17.0078 23.4701 15.5232 24.2039C13.5369 25.1843 11.2023 25.722 9.036 25.0477L9.03895 25.0506Z" fill="url(#paint1_radial_813_19794)"/>
    <path d="M20.7974 5.57456C20.8771 3.93763 21.9602 2.43737 23.4035 1.68278C24.8467 0.92819 26.5998 0.880657 28.1523 1.37381C30.3835 2.08087 32.2577 3.95249 32.8125 6.24299C33.3674 8.53053 32.4908 11.1478 30.5724 12.4995C31.4224 11.846 32.6768 11.7598 33.5799 12.3332C34.483 12.9066 34.9464 14.1246 34.604 15.1466C34.2617 16.1685 33.1224 16.8607 32.0747 16.6468C33.332 16.4359 34.6306 17.5826 34.5863 18.866C34.5421 20.1494 33.1638 21.2011 31.9242 20.901" stroke="#5C8ECF" stroke-width="1.20163" stroke-linecap="round" stroke-linejoin="round"/>
    <path d="M14.0829 10.3025C12.7282 7.87534 11.9401 5.1303 11.7985 2.34961" stroke="#5C8ECF" stroke-width="1.20163" stroke-linecap="round" stroke-linejoin="round"/>
    <path d="M9.13343 11.4445C7.36258 9.89966 6.04035 7.84087 5.36743 5.58008" stroke="#5C8ECF" stroke-width="1.20163" stroke-linecap="round" stroke-linejoin="round"/>
    <path d="M12.1292 4.8415L14.9477 2.46484" stroke="#5C8ECF" stroke-width="1.20163" stroke-linecap="round" stroke-linejoin="round"/>
    <path d="M6.43297 8.29297L3.28381 8.75642" stroke="#5C8ECF" stroke-width="1.20163" stroke-linecap="round" stroke-linejoin="round"/>
    <path d="M5.32026 20.3104C5.41766 21.0085 5.97547 21.6086 6.6543 21.7899C7.33312 21.9711 8.09163 21.7423 8.58747 21.2432C9.43747 21.8968 10.683 22.0751 11.5891 21.5076C12.4951 20.9402 12.8641 19.5707 12.2236 18.7091C11.7632 18.0912 10.9368 17.8535 10.1665 17.8535C8.33365 17.8565 8.93278 19.8291 8.1359 19.1785C7.0852 18.3199 5.12842 18.9438 5.32026 20.3134V20.3104Z" stroke="#5C8ECF" stroke-width="1.20163" stroke-linecap="round" stroke-linejoin="round"/>
    <path d="M19.1211 26.5251C17.849 26.3053 16.5061 26.5222 15.3639 27.1312C15.0717 27.2886 14.7855 27.4758 14.5907 27.7461C14.3959 28.0165 14.3132 28.3878 14.452 28.6909C14.6025 29.0206 14.9803 29.2018 15.3403 29.2167C15.7004 29.2316 16.0546 29.1157 16.3969 29.0028C17.365 28.679 18.3331 28.3552 19.2982 28.0313" stroke="#5C8ECF" stroke-width="1.20635" stroke-linecap="round" stroke-linejoin="round"/>
    <path d="M12.6633 17.4595C13.0706 16.8059 13.8764 16.4345 14.6349 16.5474C15.1366 16.6217 15.5882 16.8891 16.0338 17.1356C16.4795 17.3822 16.9488 17.6229 17.4564 17.6377C17.9641 17.6526 18.516 17.3852 18.6694 16.898" stroke="#5C8ECF" stroke-width="1.20163" stroke-linecap="round" stroke-linejoin="round"/>
    <path d="M6.08768 17.7121C5.6125 17.0882 4.6651 16.8862 3.98037 17.2665C3.65276 17.4477 3.39894 17.7329 3.14512 18.0062C2.8913 18.2795 2.61682 18.5528 2.27446 18.6984C1.93209 18.844 1.49824 18.838 1.22375 18.5825" stroke="#5C8ECF" stroke-width="1.20163" stroke-linecap="round" stroke-linejoin="round"/>
    <path d="M7.35577 17.0682C7.65604 17.0403 7.87526 16.7541 7.84541 16.4289C7.81557 16.1038 7.54795 15.8629 7.24767 15.8908C6.9474 15.9188 6.72818 16.205 6.75803 16.5301C6.78788 16.8552 7.0555 17.0961 7.35577 17.0682Z" fill="#5C8ECF"/>
    <path d="M10.1777 16.7498C10.4779 16.7219 10.6972 16.4357 10.6673 16.1106C10.6375 15.7855 10.3698 15.5445 10.0696 15.5725C9.7693 15.6004 9.55008 15.8866 9.57993 16.2117C9.60978 16.5369 9.87739 16.7778 10.1777 16.7498Z" fill="#5C8ECF"/>
    <defs>
        <linearGradient id="paint0_linear_813_19794" x1="19.1161" y1="19.1719" x2="19.1161" y2="36.6116" gradientUnits="userSpaceOnUse">
            <stop stop-color="#60C8C4"/>
            <stop offset="1" stop-color="#C5DEDD"/>
        </linearGradient>
        <radialGradient id="paint1_radial_813_19794" cx="0" cy="0" r="1" gradientUnits="userSpaceOnUse" gradientTransform="translate(19.1914 21.2059) rotate(90) scale(15.7137 15.1175)">
            <stop stop-color="#DBE7E4"/>
            <stop offset="1" stop-color="#C0E0DE"/>
        </radialGradient>
    </defs>
</svg>
