<svg width="42" height="32" viewBox="0 0 42 32" fill="none" xmlns="http://www.w3.org/2000/svg">
    <g style="mix-blend-mode:multiply" filter="url(#filter0_f_813_19724)">
        <ellipse cx="28.9727" cy="36.299" rx="24.4626" ry="2.36735" fill="#6F85B3"/>
    </g>
    <path d="M41.1622 25.3258C41.4962 24.764 41.8339 24.1909 42.3083 23.7392C42.7827 23.2875 43.4127 22.9573 44.0654 22.9952C45.2153 23.056 45.9971 24.1415 46.9724 24.7564C48.0844 25.4624 49.5682 25.5384 50.7447 24.95C51.9211 24.3617 52.756 23.1357 52.8661 21.8262" stroke="#CF845C" stroke-width="1.57823" stroke-linecap="round" stroke-linejoin="round"/>
    <path d="M29.1768 32.8216C28.9681 33.3492 28.8315 34.0704 28.7822 34.6359C28.7328 35.2015 28.8657 35.8088 29.2641 36.2073C29.803 36.7501 30.6569 36.7843 31.4235 36.7881C32.247 36.7881 33.0743 36.7881 33.8979 36.7881C34.7366 36.7881 35.6549 36.7653 36.3001 36.2301C36.8618 35.7633 37.0971 34.9927 37.0781 34.2602C37.0629 33.6946 36.6872 31.1249 36.5164 30.5859" fill="url(#paint0_radial_813_19724)"/>
    <path d="M42.0305 13.0436C38.4707 8.95183 31.2716 7.70685 25.9623 8.81898C20.6531 9.93112 17.1237 13.055 12.9682 16.5432C9.79176 19.2154 7.7045 21.3296 8.35345 25.4327C9.06691 29.9344 14.0725 32.7584 18.5772 33.4302C26.0193 34.5424 32.9945 33.935 39.1956 29.6193C44.5997 25.8616 46.6718 18.3803 42.0305 13.0436Z" fill="url(#paint1_radial_813_19724)"/>
    <path d="M13.8791 22.3076C14.2668 22.3076 14.5812 21.9694 14.5812 21.5522C14.5812 21.1351 14.2668 20.7969 13.8791 20.7969C13.4913 20.7969 13.177 21.1351 13.177 21.5522C13.177 21.9694 13.4913 22.3076 13.8791 22.3076Z" fill="#CF845C"/>
    <path d="M17.9056 22.3076C18.2933 22.3076 18.6076 21.9694 18.6076 21.5522C18.6076 21.1351 18.2933 20.7969 17.9056 20.7969C17.5178 20.7969 17.2035 21.1351 17.2035 21.5522C17.2035 21.9694 17.5178 22.3076 17.9056 22.3076Z" fill="#CF845C"/>
    <mask id="mask0_813_19724" style="mask-type:alpha" maskUnits="userSpaceOnUse" x="8" y="8" width="37" height="26">
        <path d="M42.0305 13.0416C38.4707 8.94988 31.2716 7.70489 25.9623 8.81703C20.6531 9.92917 17.1237 13.053 12.9682 16.5413C9.79176 19.2134 7.7045 21.3276 8.35345 25.4308C9.06691 29.9324 14.0725 32.7564 18.5772 33.4283C26.0193 34.5404 32.9945 33.9331 39.1956 29.6174C44.5997 25.8597 46.6718 18.3784 42.0305 13.0416Z" fill="#99C1DE"/>
    </mask>
    <g mask="url(#mask0_813_19724)">
        <path d="M8.45569 23.7972C9.08091 23.5259 10.8158 23.7068 11.2508 24.2268C11.6857 24.7468 11.7355 25.5607 11.3595 26.1259C10.9835 26.6911 9.27119 26.9624 8.62332 26.7634" stroke="#CF845C" stroke-width="1.57823" stroke-miterlimit="10" stroke-linecap="round" stroke-linejoin="round"/>
    </g>
    <path d="M35.636 17.2959C38.7821 16.8974 41.5487 14.4492 42.3988 11.3937C43.2488 8.33812 42.1711 4.84989 39.7954 2.75087C37.4197 0.651857 33.8713 0.0103857 30.8847 1.07318C27.898 2.13597 25.5678 4.83091 24.8734 7.92439C24.0498 4.61076 20.5812 2.17393 17.1846 2.53072C13.7881 2.88752 10.8963 5.99239 10.7824 9.40471C10.6686 12.817 13.3441 16.1079 16.7103 16.6924" stroke="#CF845C" stroke-width="1.56" stroke-linecap="round" stroke-linejoin="round"/>
    <defs>
        <filter id="filter0_f_813_19724" x="0.169995" y="29.5915" width="57.6054" height="13.4146" filterUnits="userSpaceOnUse" color-interpolation-filters="sRGB">
            <feFlood flood-opacity="0" result="BackgroundImageFix"/>
            <feBlend mode="normal" in="SourceGraphic" in2="BackgroundImageFix" result="shape"/>
            <feGaussianBlur stdDeviation="2.17007" result="effect1_foregroundBlur_813_19724"/>
        </filter>
        <radialGradient id="paint0_radial_813_19724" cx="0" cy="0" r="1" gradientUnits="userSpaceOnUse" gradientTransform="translate(32.9257 33.687) rotate(90) scale(3.10108 4.1534)">
            <stop stop-color="#FFC42D"/>
            <stop offset="1" stop-color="#FFDB7F"/>
        </radialGradient>
        <radialGradient id="paint1_radial_813_19724" cx="0" cy="0" r="1" gradientUnits="userSpaceOnUse" gradientTransform="translate(26.417 21.174) rotate(90) scale(12.7424 18.1819)">
            <stop stop-color="#FFDB7F"/>
            <stop offset="1" stop-color="#F6E5BA"/>
        </radialGradient>
    </defs>
</svg>
