<svg width="40" height="25" viewBox="0 0 40 25" fill="none" xmlns="http://www.w3.org/2000/svg">
    <path d="M23.2408 24.3555C23.0122 24.9303 22.3599 26.5928 22.3059 27.209C22.2519 27.8252 22.3973 28.4869 22.8336 28.9211C23.4236 29.5125 24.3584 29.5497 25.1977 29.5538C26.0993 29.5538 27.005 29.5538 27.9066 29.5538C28.8249 29.5538 29.8303 29.529 30.5367 28.9459C31.1516 28.4372 31.4092 27.5977 31.3884 26.7996C31.3801 26.4605 31.3261 26.1255 31.2513 25.7946" fill="url(#paint0_radial_813_19886)"/>
    <path d="M6.30982 10.1445C4.51078 10.3679 3.18954 11.3893 2.27132 12.9484C1.3531 14.5075 1.38634 16.6291 2.52476 18.0351C3.66319 19.4412 5.54533 19.9085 7.03692 18.8871" stroke="#CF6F5C" stroke-width="1.56" stroke-linecap="round" stroke-linejoin="round"/>
    <path d="M19.8671 2.6986C14.0088 1.32146 10.7223 3.07493 8.29588 6.40818C5.86945 9.74142 4.99694 14.7537 6.95386 18.4591C9.31797 22.9338 14.5489 23.9759 19.1317 24.5673C22.6093 25.0181 26.091 25.4689 29.5686 25.9197C34.6251 26.5731 40.1635 27.1107 44.4097 23.9387C48.7848 20.6717 50.5049 13.5627 48.2072 8.23195C45.7143 2.43392 41.1025 0.490219 35.7884 0.585337C29.7058 0.692861 25.8958 4.11709 19.8671 2.6986Z" fill="url(#paint1_radial_813_19886)"/>
    <path d="M10.4356 13.4506C10.8601 13.4506 11.2043 13.0822 11.2043 12.6277C11.2043 12.1731 10.8601 11.8047 10.4356 11.8047C10.0111 11.8047 9.66699 12.1731 9.66699 12.6277C9.66699 13.0822 10.0111 13.4506 10.4356 13.4506Z" fill="#CF6F5C"/>
    <path d="M14.4284 13.4506C14.8529 13.4506 15.1971 13.0822 15.1971 12.6277C15.1971 12.1731 14.8529 11.8047 14.4284 11.8047C14.0039 11.8047 13.6598 12.1731 13.6598 12.6277C13.6598 13.0822 14.0039 13.4506 14.4284 13.4506Z" fill="#CF6F5C"/>
    <path d="M25.7089 8.75C28.2807 10.7475 30.8526 12.7491 33.4202 14.7465C34.4257 15.5281 35.4894 16.4007 35.801 17.629C36.0877 18.7621 35.6348 20.0028 34.8163 20.8423C33.9978 21.6818 32.8593 22.1574 31.7043 22.3683C29.0784 22.8522 26.2407 22.0209 24.3045 20.193C22.3684 18.3651 21.3712 15.5943 21.7119 12.9558" stroke="#CF6F5C" stroke-width="1.56" stroke-linecap="round" stroke-linejoin="round"/>
    <path d="M11.8564 16.77L11.8024 18.8377M13.7302 15.4259C13.7302 15.9329 12.9601 16.344 12.0101 16.344C11.0602 16.344 10.29 15.9329 10.29 15.4259C10.29 14.9189 11.0602 14.5078 12.0101 14.5078C12.9601 14.5078 13.7302 14.9189 13.7302 15.4259Z" stroke="#CF6F5C" stroke-width="2" stroke-linecap="round" stroke-linejoin="round"/>
    <defs>
        <radialGradient id="paint0_radial_813_19886" cx="0" cy="0" r="1" gradientUnits="userSpaceOnUse" gradientTransform="translate(26.8424 26.9547) rotate(90) scale(2.59919 4.54719)">
            <stop stop-color="#E6A680"/>
            <stop offset="1" stop-color="#DCB69F"/>
        </radialGradient>
        <radialGradient id="paint1_radial_813_19886" cx="0" cy="0" r="1" gradientUnits="userSpaceOnUse" gradientTransform="translate(27.5529 13.5001) rotate(90) scale(12.9181 21.6742)">
            <stop stop-color="#F1CFBA"/>
            <stop offset="1" stop-color="#EDDCD2"/>
        </radialGradient>
    </defs>
</svg>
