<svg width="35" height="29" viewBox="0 0 35 29" fill="none" xmlns="http://www.w3.org/2000/svg">
    <path d="M15.606 2.94444C17.4069 2.33671 19.2277 1.72559 21.1185 1.57028C23.0093 1.41497 25.0066 1.75936 26.5279 2.91068C28.0492 4.062 28.9746 6.12156 28.462 7.97515C28.0392 9.508 26.7143 10.9328 27.1637 12.4555C27.4633 13.4752 28.5152 14.1133 29.5538 14.2382C30.5924 14.3631 31.6344 14.0795 32.6463 13.7993C31.9872 14.6231 31.3248 15.4503 30.6657 16.2741" stroke="#CF845C" stroke-width="1.56" stroke-linecap="round" stroke-linejoin="round"/>
    <path d="M18.7793 5.05211C14.1356 3.80287 8.7961 4.49839 5.63036 8.16169C2.91069 11.3084 2.38473 17.163 5.2309 20.1915C6.70891 21.7682 9.94123 23.0884 12.561 22.9365C14.6283 22.8149 14.3187 27.3527 15.9198 29.7836C17.3379 31.9377 19.5683 33.0958 22.1082 33.3558C24.6481 33.6157 27.4643 33.3558 30.0075 33.1329C32.9702 32.8696 35.5368 32.1268 37.877 30.702C40.2171 29.2772 41.6619 27.3155 41.4688 23.3045C41.2557 18.841 38.0234 17.2609 34.7145 16.4776C31.0228 15.6031 25.973 17.9192 24.4117 13.7934C22.9737 9.99503 24.0156 6.46003 18.776 5.05211H18.7793Z" fill="url(#paint0_radial_813_19827)"/>
    <mask id="mask0_813_19827" style="mask-type:alpha" maskUnits="userSpaceOnUse" x="3" y="4" width="39" height="30">
        <path d="M18.795 4.97789C14.1512 3.72865 8.81173 4.42417 5.64599 8.08748C2.92632 11.2342 2.40036 17.0887 5.24653 20.1173C6.72454 21.694 9.95685 23.0142 12.5767 22.8622C14.6439 22.7407 14.3343 27.2785 15.9355 29.7094C17.3536 31.8635 19.5839 33.0216 22.1238 33.2815C24.6637 33.5415 27.4799 33.2815 30.0232 33.0587C32.9859 32.7954 35.5524 32.0526 37.8926 30.6278C40.2328 29.203 41.6775 27.2413 41.4844 23.2303C41.2714 18.7668 38.039 17.1866 34.7302 16.4033C31.0385 15.5289 25.9886 17.845 24.4274 13.7192C22.9893 9.92082 24.0312 6.38581 18.7916 4.97789H18.795Z" fill="#99C1DE"/>
    </mask>
    <g mask="url(#mask0_813_19827)">
        <path d="M2.99634 16.2953C4.73733 14.9077 7.32388 14.6544 9.27126 15.7247C10.2 16.2379 11.0222 17.0887 11.1887 18.1489C11.3485 19.1922 10.8158 20.276 9.97364 20.8938C9.13144 21.5117 7.35381 22.035 6.32519 21.8662" stroke="#CF845C" stroke-width="1.35065" stroke-miterlimit="10"/>
    </g>
    <path d="M7.99944 17.8926C7.89624 18.4159 7.92953 18.9662 8.0993 19.4693" stroke="#CF845C" stroke-width="1.35065" stroke-miterlimit="10" stroke-linecap="round"/>
    <path d="M5.37541 17.8926C5.27222 18.4159 5.30551 18.9662 5.47528 19.4693" stroke="#CF845C" stroke-width="1.35065" stroke-miterlimit="10" stroke-linecap="round"/>
    <path d="M16.5615 7.76928C16.0988 6.23643 15.6328 4.70359 15.1701 3.17074C15.0203 2.67442 14.8139 2.11395 14.3345 1.92825C13.9983 1.79658 13.6022 1.90462 13.3159 2.12746C13.0296 2.35029 12.8332 2.67442 12.6801 3.0053C11.9278 4.65294 12.1541 6.71587 13.2427 8.15418" stroke="#CF845C" stroke-width="1.56" stroke-miterlimit="10" stroke-linecap="round"/>
    <path d="M12.2736 2.65076C11.032 1.10778 8.76835 0.513548 6.94747 1.24958C5.12658 1.98562 3.88159 3.99115 4.0214 5.97643C4.06468 6.60105 4.23112 7.22566 4.13126 7.84015C4.00809 8.59307 3.49212 9.2312 2.87628 9.66674C2.26044 10.1023 1.54141 10.3623 0.835693 10.6189C4.84696 11.8377 9.41082 11.0105 12.7596 8.4614" stroke="#CF845C" stroke-width="1.56" stroke-linecap="round" stroke-linejoin="round"/>
    <path d="M9.32433 13.9453C9.66445 13.9453 9.94017 13.6445 9.94017 13.2735C9.94017 12.9024 9.66445 12.6016 9.32433 12.6016C8.98422 12.6016 8.7085 12.9024 8.7085 13.2735C8.7085 13.6445 8.98422 13.9453 9.32433 13.9453Z" fill="#CF845C"/>
    <path d="M5.9425 13.9453C6.28262 13.9453 6.55834 13.6445 6.55834 13.2735C6.55834 12.9024 6.28262 12.6016 5.9425 12.6016C5.60238 12.6016 5.32666 12.9024 5.32666 13.2735C5.32666 13.6445 5.60238 13.9453 5.9425 13.9453Z" fill="#CF845C"/>
    <defs>
        <radialGradient id="paint0_radial_813_19827" cx="0" cy="0" r="1" gradientUnits="userSpaceOnUse" gradientTransform="translate(22.4076 18.9724) rotate(90) scale(14.492 19.0785)">
            <stop stop-color="#FFDB7F"/>
            <stop offset="1" stop-color="#F6E5BA"/>
        </radialGradient>
    </defs>
</svg>
