<svg width="39" height="30" viewBox="0 0 39 30" fill="none" xmlns="http://www.w3.org/2000/svg">
    <g style="mix-blend-mode:multiply" filter="url(#filter0_f_813_19859)">
        <ellipse cx="25.966" cy="31.9588" rx="21.0884" ry="2.04082" fill="#6F85B3"/>
    </g>
    <path d="M39.9671 23.5119C40.5284 23.1262 41.9118 22.7899 43.0437 22.9133C44.5498 23.0768 46.1112 23.2342 47.5498 22.756C49.605 22.0741 51.1295 20.0193 51.2 17.8442C51.2706 15.6691 49.881 13.5217 47.878 12.7041C46.9915 12.3432 45.786 11.9266 45.8566 10.9671C45.9302 9.97675 47.3075 9.76696 48.2614 10.0292C51.973 11.0504 54.5834 15.1076 53.9945 18.9333C53.4055 22.7591 49.6909 25.8258 45.8474 25.6654C44.5621 25.6129 43.2983 25.2458 42.0161 25.2828C40.7339 25.3198 39.1205 25.832 38.6696 27.0445" fill="url(#paint0_linear_813_19859)"/>
    <path d="M22.9091 29.8477C22.7403 30.2765 22.5686 30.7115 22.5287 31.1682C22.4888 31.6248 22.5962 32.1215 22.9183 32.4455C23.3538 32.8867 24.044 32.9144 24.6636 32.9175C25.3293 32.9175 25.998 32.9175 26.6636 32.9175C27.3415 32.9175 28.0838 32.899 28.6053 32.464C29.0593 32.0845 29.2494 31.4582 29.2341 30.8627" fill="url(#paint1_linear_813_19859)"/>
    <path d="M30.5347 31.0307C30.4948 31.4904 30.6022 31.9841 30.9242 32.308C31.3598 32.7492 32.05 32.777 32.6696 32.7801C33.3352 32.7801 34.0039 32.7801 34.6696 32.7801C35.3475 32.7801 36.0898 32.7616 36.6113 32.3265C37.0652 31.9471 37.2554 31.3207 37.2401 30.7253C37.2278 30.2656 37.145 29.2135 37.007 28.7754" fill="url(#paint2_linear_813_19859)"/>
    <path d="M10.6946 7.85219C9.15164 6.23859 6.57806 5.72335 4.53821 6.62425C2.49837 7.52515 1.13336 9.77123 1.26526 12.0081C1.39716 14.2449 3.0229 16.312 5.15477 16.9599C6.29585 17.3086 7.64859 17.2253 8.53508 16.42" stroke="#5C62CF" stroke-width="1.56" stroke-linecap="round" stroke-linejoin="round"/>
    <path d="M24.5102 1.1328C15.7864 0.997051 12.446 4.42479 10.265 8.74418C8.08409 13.0636 7.76507 18.9935 10.6055 23.0722C13.1147 26.6789 15.5748 26.6974 19.6023 28.419C22.8507 29.8105 26.0777 31.711 31.3261 31.3685C35.6205 31.0878 39.7094 27.3237 39.9149 23.4825C40.0591 20.7582 39.3413 19.5735 38.9609 16.7628C37.9395 9.22548 31.6911 1.24696 24.5102 1.1328Z" fill="url(#paint3_radial_813_19859)"/>
    <path d="M14.857 16.8295C15.1704 16.8295 15.4245 16.5546 15.4245 16.2155C15.4245 15.8764 15.1704 15.6016 14.857 15.6016C14.5436 15.6016 14.2896 15.8764 14.2896 16.2155C14.2896 16.5546 14.5436 16.8295 14.857 16.8295Z" fill="#5C62CF"/>
    <path d="M17.8049 16.8295C18.1183 16.8295 18.3724 16.5546 18.3724 16.2155C18.3724 15.8764 18.1183 15.6016 17.8049 15.6016C17.4915 15.6016 17.2374 15.8764 17.2374 16.2155C17.2374 16.5546 17.4915 16.8295 17.8049 16.8295Z" fill="#5C62CF"/>
    <path d="M9.41235 10.5789C10.0473 9.26765 11.7007 8.51484 13.1485 8.55495C14.5963 8.59506 15.9828 9.54841 16.5441 10.8936C18.2987 8.86965 21.2404 8.16929 23.8692 8.64134C27.2894 9.25222 30.3169 11.739 31.5961 14.9847C32.8752 18.2304 32.3691 22.1302 30.2955 24.9316C28.2219 27.733 24.9336 29.18 21.4735 28.8838" stroke="#5C62CF" stroke-width="1.56" stroke-linecap="round" stroke-linejoin="round"/>
    <path d="M16.2312 17.6211L16.1515 21.996" stroke="#5C62CF" stroke-width="1.36054" stroke-linecap="round" stroke-linejoin="round"/>
    <path d="M31.636 10.4955C32.6574 8.15992 35.1298 6.54632 37.6666 6.55866C40.2033 6.57101 42.6604 8.20929 43.6573 10.5541C44.2339 11.9054 44.3382 13.4789 43.829 14.8581C43.2033 16.5611 41.6941 17.8446 39.9917 18.4493C38.2893 19.054 36.4212 19.0417 34.6482 18.6961" stroke="#5C62CF" stroke-width="1.56" stroke-linecap="round" stroke-linejoin="round"/>
    <defs>
        <filter id="filter0_f_813_19859" x="1.13607" y="26.1765" width="49.6599" height="11.565" filterUnits="userSpaceOnUse" color-interpolation-filters="sRGB">
            <feFlood flood-opacity="0" result="BackgroundImageFix"/>
            <feBlend mode="normal" in="SourceGraphic" in2="BackgroundImageFix" result="shape"/>
            <feGaussianBlur stdDeviation="1.87075" result="effect1_foregroundBlur_813_19859"/>
        </filter>
        <linearGradient id="paint0_linear_813_19859" x1="46.3735" y1="9.92578" x2="46.3735" y2="27.0445" gradientUnits="userSpaceOnUse">
            <stop stop-color="#94C7E4"/>
            <stop offset="1" stop-color="#B1CCDB"/>
        </linearGradient>
        <linearGradient id="paint1_linear_813_19859" x1="25.8779" y1="29.8477" x2="25.8779" y2="32.9175" gradientUnits="userSpaceOnUse">
            <stop stop-color="#94C7E4"/>
            <stop offset="1" stop-color="#B1CCDB"/>
        </linearGradient>
        <linearGradient id="paint2_linear_813_19859" x1="33.8838" y1="28.7754" x2="33.8838" y2="32.7801" gradientUnits="userSpaceOnUse">
            <stop stop-color="#94C7E4"/>
            <stop offset="1" stop-color="#B1CCDB"/>
        </linearGradient>
        <radialGradient id="paint3_radial_813_19859" cx="0" cy="0" r="1" gradientUnits="userSpaceOnUse" gradientTransform="translate(24.243 16.269) rotate(90) scale(15.1401 15.6907)">
            <stop stop-color="#B0D5EB"/>
            <stop offset="1" stop-color="#D6E2E9"/>
        </radialGradient>
    </defs>
</svg>
