<svg width="38" height="32" viewBox="0 0 38 32" fill="none" xmlns="http://www.w3.org/2000/svg">
    <path d="M26.8259 35.0109C20.6964 37.3806 13.0241 36.4598 8.561 31.6717C6.11469 29.0483 4.51016 26.3902 4.1013 22.8391C3.74741 19.7327 3.85735 16.7271 5.32445 13.9578C8.03189 8.85343 13.8006 6.51497 19.9061 7.04659C25.6989 7.55042 31.2547 12.4428 32.4744 18.0822C32.7424 19.3227 32.6462 21.1782 32.6462 22.37C32.6462 23.4576 33.7628 23.7043 36.2435 23.1587C36.9375 23.0058 38.4046 21.9461 38.6864 22.2484C39.2155 22.8113 37.4426 26.3659 36.9684 27.0191C34.072 31.022 31.4849 33.211 26.8224 35.0144L26.8259 35.0109Z" fill="url(#paint0_radial_813_19874)"/>
    <path d="M7.55067 20.3634C7.90172 20.3634 8.1863 20.0538 8.1863 19.6719C8.1863 19.29 7.90172 18.9805 7.55067 18.9805C7.19962 18.9805 6.91504 19.29 6.91504 19.6719C6.91504 20.0538 7.19962 20.3634 7.55067 20.3634Z" fill="#5C8ECF"/>
    <path d="M10.8529 20.3634C11.204 20.3634 11.4885 20.0538 11.4885 19.6719C11.4885 19.29 11.204 18.9805 10.8529 18.9805C10.5019 18.9805 10.2173 19.29 10.2173 19.6719C10.2173 20.0538 10.5019 20.3634 10.8529 20.3634Z" fill="#5C8ECF"/>
    <path d="M11.588 7.70548C10.8631 4.31765 12.5397 0.547614 15.5255 -1.15151C18.5112 -2.85063 22.5689 -2.34333 25.0565 0.0437843C27.544 2.4309 28.2587 6.49976 26.7366 9.60613C27.1111 7.65683 29.097 6.18704 31.052 6.36425C33.007 6.54145 34.6905 8.29617 34.852 10.2767C35.0135 12.2573 33.677 14.2448 31.8147 14.8703" stroke="#5C8ECF" stroke-width="1.56" stroke-linecap="round" stroke-linejoin="round"/>
    <path d="M8.72211 21.334L6.19678 22.5467C7.0042 23.0609 7.80818 23.5717 8.6156 24.0859" stroke="#5C8ECF" stroke-width="1.35385" stroke-linecap="round" stroke-linejoin="round"/>
    <defs>
        <radialGradient id="paint0_radial_813_19874" cx="0" cy="0" r="1" gradientUnits="userSpaceOnUse" gradientTransform="translate(21.358 21.6189) rotate(90) scale(14.6462 17.4259)">
            <stop stop-color="#DBE7E4"/>
            <stop offset="1" stop-color="#C0E0DE"/>
        </radialGradient>
    </defs>
</svg>
