<svg width="43" height="31" viewBox="0 0 43 31" fill="none" xmlns="http://www.w3.org/2000/svg">
    <g style="mix-blend-mode:multiply" filter="url(#filter0_f_813_19739)">
        <ellipse cx="29.8639" cy="32.3064" rx="25.1701" ry="2.04082" fill="#6F85B3"/>
    </g>
    <path d="M23.0265 29.0778C22.8517 29.5188 22.6738 29.9662 22.6325 30.4357C22.5912 30.9053 22.7024 31.4161 23.036 31.7493C23.4872 32.203 24.2021 32.2315 24.8439 32.2347C25.5334 32.2347 26.2261 32.2347 26.9156 32.2347C27.6178 32.2347 28.3867 32.2157 28.9268 31.7683C29.3971 31.378 29.5941 30.734 29.5782 30.1216C29.5655 29.6489 29.4447 29.1888 29.3018 28.7383" fill="url(#paint0_radial_813_19739)"/>
    <path d="M31.577 28.7793C31.4022 29.2203 31.2878 29.8231 31.2465 30.2959C31.2052 30.7686 31.3164 31.2763 31.65 31.6094C32.1012 32.0631 32.8161 32.0917 33.4579 32.0948C34.1474 32.0948 34.8401 32.0948 35.5296 32.0948C36.2318 32.0948 37.0007 32.0758 37.5409 31.6284C38.0111 31.2382 38.2081 30.5941 38.1922 29.9818C38.1795 29.509 38.0937 28.4271 37.9507 27.9766" fill="url(#paint1_radial_813_19739)"/>
    <path d="M18.3337 3.51992C16.1413 3.85306 13.844 4.35119 12.2172 5.85509C9.74208 8.14585 9.61499 11.9532 9.72302 15.3195C9.82469 18.4796 10.0566 21.8491 11.9567 24.3778C13.7233 26.7289 16.6433 27.925 19.5156 28.5596C24.6852 29.705 30.0549 29.3782 35.3389 29.045C38.2303 28.8642 41.2646 28.6357 43.6921 27.0588C46.0084 25.5549 47.4732 22.9659 48.0578 20.2659C48.9951 15.9287 47.7464 11.179 44.7979 7.85712C38.602 0.876984 26.5694 2.26032 18.3337 3.51992Z" fill="url(#paint2_radial_813_19739)"/>
    <path d="M17.1769 16.3526C17.5016 16.3526 17.7647 16.0699 17.7647 15.7212C17.7647 15.3725 17.5016 15.0898 17.1769 15.0898C16.8523 15.0898 16.5891 15.3725 16.5891 15.7212C16.5891 16.0699 16.8523 16.3526 17.1769 16.3526Z" fill="#5C62CF"/>
    <path d="M20.2304 16.3526C20.555 16.3526 20.8182 16.0699 20.8182 15.7212C20.8182 15.3725 20.555 15.0898 20.2304 15.0898C19.9057 15.0898 19.6426 15.3725 19.6426 15.7212C19.6426 16.0699 19.9057 16.3526 20.2304 16.3526Z" fill="#5C62CF"/>
    <path d="M16.208 18.1799C14.4096 18.5035 12.5953 19.1888 11.3784 20.5468C10.1615 21.9048 9.71027 24.0591 10.6984 25.5947C11.7756 27.2668 14.0696 27.6602 16.0555 27.492C18.0413 27.3239 20.0462 26.7655 21.9971 27.1684C24.2213 27.6285 26.5947 28.831 28.2438 26.4958C29.1811 25.1696 29.2828 22.8312 28.4599 21.413C26.4136 17.888 19.6173 17.5644 16.208 18.1799Z" stroke="#5C62CF" stroke-width="1.56" stroke-linecap="round" stroke-linejoin="round"/>
    <path d="M30.4331 10.1328C33.2895 11.2877 36.4415 11.697 39.4981 11.3099C39.193 13.3056 37.6171 15.0506 35.6598 15.5551C33.7026 16.0596 31.4752 15.3013 30.2393 13.7054" stroke="#5C62CF" stroke-width="1.56" stroke-linecap="round" stroke-linejoin="round"/>
    <path d="M9.84997 9.07422C7.91814 9.75637 5.85921 10.0863 3.80981 10.0483C4.14661 11.2159 5.02039 12.2185 6.13246 12.7102C7.24454 13.202 8.57267 13.183 9.66886 12.6531" stroke="#5C62CF" stroke-width="1.56" stroke-linecap="round" stroke-linejoin="round"/>
    <path d="M28.4534 7.04947C27.3795 5.09503 26.5852 2.9883 26.1054 0.808594C24.9425 2.69958 24.6597 5.10772 25.3587 7.21446" stroke="#5C62CF" stroke-width="1.56" stroke-linecap="round" stroke-linejoin="round"/>
    <path d="M15.4232 6.69936C14.7337 5.10662 14.0442 3.51071 13.3547 1.91797C12.1346 3.72646 11.7692 6.08067 12.3825 8.17154" stroke="#5C62CF" stroke-width="1.56" stroke-linecap="round" stroke-linejoin="round"/>
    <path d="M15.8457 21.3203C15.474 22.5545 15.4454 23.8903 15.76 25.1404" stroke="#5C62CF" stroke-width="1.56" stroke-linecap="round" stroke-linejoin="round"/>
    <path d="M21.5428 21.3145C21.0821 22.6692 21.0121 24.1541 21.3394 25.5501" stroke="#5C62CF" stroke-width="1.56" stroke-linecap="round" stroke-linejoin="round"/>
    <defs>
        <filter id="filter0_f_813_19739" x="0.952351" y="26.5241" width="57.8231" height="11.565" filterUnits="userSpaceOnUse" color-interpolation-filters="sRGB">
            <feFlood flood-opacity="0" result="BackgroundImageFix"/>
            <feBlend mode="normal" in="SourceGraphic" in2="BackgroundImageFix" result="shape"/>
            <feGaussianBlur stdDeviation="1.87075" result="effect1_foregroundBlur_813_19739"/>
        </filter>
        <radialGradient id="paint0_radial_813_19739" cx="0" cy="0" r="1" gradientUnits="userSpaceOnUse" gradientTransform="translate(26.1017 30.4865) rotate(90) scale(1.74821 3.47741)">
            <stop stop-color="#B677EE"/>
            <stop offset="1" stop-color="#B1ABF9"/>
        </radialGradient>
        <radialGradient id="paint1_radial_813_19739" cx="0" cy="0" r="1" gradientUnits="userSpaceOnUse" gradientTransform="translate(34.7157 30.0357) rotate(90) scale(2.05914 3.47741)">
            <stop stop-color="#B677EE"/>
            <stop offset="1" stop-color="#B1ABF9"/>
        </radialGradient>
        <radialGradient id="paint2_radial_813_19739" cx="0" cy="0" r="1" gradientUnits="userSpaceOnUse" gradientTransform="translate(29.0307 15.9253) rotate(90) scale(13.4331 19.3335)">
            <stop stop-color="#C996ED"/>
            <stop offset="1" stop-color="#D4D2FC"/>
        </radialGradient>
    </defs>
</svg>
