<svg width="27" height="27" viewBox="0 0 27 27" fill="none" xmlns="http://www.w3.org/2000/svg">
<g clip-path="url(#clip0_526_9594)">
<path d="M6.60421 20.006C7.69958 19.2071 8.86458 18.5932 10.0992 18.1643C11.3337 17.7355 12.634 17.5211 14.0003 17.5211C15.3666 17.5211 16.6669 17.7355 17.9014 18.1643C19.136 18.5932 20.301 19.2071 21.3964 20.006C22.126 19.1062 22.6699 18.1632 23.028 17.177C23.3862 16.1908 23.5652 15.1319 23.5652 14.0003C23.5652 11.3792 22.6263 9.12982 20.7486 7.25204C18.8708 5.37426 16.6214 4.43537 14.0003 4.43537C11.3792 4.43537 9.12982 5.37426 7.25204 7.25204C5.37426 9.12982 4.43537 11.3792 4.43537 14.0003C4.43537 15.1319 4.61445 16.1908 4.97259 17.177C5.33074 18.1632 5.87461 19.1062 6.60421 20.006ZM14.0027 15.5847C12.7342 15.5847 11.6636 15.1491 10.7911 14.2779C9.91829 13.4068 9.4819 12.3371 9.4819 11.0686C9.4819 9.80015 9.91751 8.72962 10.7887 7.85704C11.6597 6.98426 12.7295 6.54787 13.998 6.54787C15.2664 6.54787 16.337 6.98348 17.2095 7.85469C18.0823 8.7257 18.5187 9.79545 18.5187 11.0639C18.5187 12.3324 18.0831 13.4029 17.2119 14.2755C16.3409 15.1483 15.2711 15.5847 14.0027 15.5847ZM14.0003 26.0885C12.3543 26.0885 10.7941 25.7704 9.31965 25.1341C7.84501 24.4976 6.56225 23.6313 5.47138 22.5351C4.38051 21.4389 3.51458 20.1539 2.87359 18.6801C2.2326 17.2062 1.91211 15.6414 1.91211 13.9856C1.91211 12.3299 2.2326 10.7699 2.87359 9.30586C3.51458 7.84178 4.38051 6.56166 5.47138 5.46551C6.56225 4.36936 7.84501 3.50304 9.31965 2.86655C10.7941 2.23026 12.3592 1.91211 14.015 1.91211C15.6707 1.91211 17.2307 2.2326 18.6947 2.87359C20.1588 3.51458 21.4366 4.3809 22.5281 5.47255C23.6197 6.56401 24.486 7.841 25.127 9.30351C25.768 10.7658 26.0885 12.3314 26.0885 14.0003C26.0885 15.6463 25.7704 17.2065 25.1341 18.681C24.4976 20.1556 23.6313 21.4384 22.5351 22.5292C21.4389 23.6201 20.1596 24.486 18.6971 25.127C17.2348 25.768 15.6692 26.0885 14.0003 26.0885Z" fill="url(#paint0_radial_526_9594)"/>
</g>
<defs>
<radialGradient id="paint0_radial_526_9594" cx="0" cy="0" r="1" gradientUnits="userSpaceOnUse" gradientTransform="translate(14.0003 14.0003) rotate(90) scale(12.0882)">
<stop offset="0.42" stop-color="#3E7FFF"/>
<stop offset="1" stop-color="#6F9EFD" stop-opacity="0.7"/>
</radialGradient>
<clipPath id="clip0_526_9594">
<rect width="27" height="27" fill="white"/>
</clipPath>
</defs>
</svg>
