<svg width="127" height="38" viewBox="0 0 127 38" fill="none" xmlns="http://www.w3.org/2000/svg">
    <path d="M0 38.2228C0 29.4511 7.11312 22.338 15.8848 22.338C16.7433 22.338 17.5842 22.4256 18.4018 22.5541C23.2958 9.41992 36.5409 0 52.122 0C67.7031 0 79.6985 8.54977 85.1005 20.7262C87.3138 19.856 89.755 19.3596 92.3304 19.3596C99.9458 19.3596 106.428 23.5994 109.004 29.5621C110.826 28.1021 113.121 27.2202 115.632 27.2202C121.513 27.2202 126.278 31.9857 126.278 37.8666C126.278 38.0359 126.261 38.2053 126.255 38.3747L0.00583679 38.2287L0 38.2228Z" fill="white"/>
</svg>
