<svg width="109" height="39" viewBox="0 0 109 39" fill="none" xmlns="http://www.w3.org/2000/svg">
    <path d="M-18.0166 38.8546C-18.0166 30.083 -10.9035 22.9698 -2.1318 22.9698C-1.27332 22.9698 -0.432363 23.0574 0.385237 23.1859C5.27916 10.0518 18.5243 0.631836 34.1054 0.631836C49.6865 0.631836 61.6819 9.18161 67.0839 21.358C69.2972 20.4878 71.7384 19.9914 74.3138 19.9914C81.9292 19.9914 88.4116 24.2313 90.987 30.1939C92.8091 28.7339 95.1042 27.8521 97.6154 27.8521C103.496 27.8521 108.262 32.6175 108.262 38.4984C108.262 38.6678 108.244 38.8371 108.238 39.0065L-18.0108 38.8605L-18.0166 38.8546Z" fill="white"/>
</svg>
