<svg width="24" height="24" viewBox="0 0 24 24" fill="none" xmlns="http://www.w3.org/2000/svg">
<path d="M11 17.1429C11 17.6162 11.3838 18 11.8571 18C12.3305 18 12.7143 17.6162 12.7143 17.1429C12.7143 16.6695 12.3305 16.2857 11.8571 16.2857C11.3838 16.2857 11 16.6695 11 17.1429Z" stroke="white" stroke-width="1.71429" stroke-linecap="round" stroke-linejoin="round"/>
<path d="M11 12C11 12.4734 11.3838 12.8571 11.8571 12.8571C12.3305 12.8571 12.7143 12.4734 12.7143 12C12.7143 11.5266 12.3305 11.1429 11.8571 11.1429C11.3838 11.1429 11 11.5266 11 12Z" stroke="white" stroke-width="1.71429" stroke-linecap="round" stroke-linejoin="round"/>
<path d="M11 6.85714C11 7.33053 11.3838 7.71429 11.8571 7.71429C12.3305 7.71429 12.7143 7.33053 12.7143 6.85714C12.7143 6.38376 12.3305 6 11.8571 6C11.3838 6 11 6.38376 11 6.85714Z" stroke="white" stroke-width="1.71429" stroke-linecap="round" stroke-linejoin="round"/>
</svg>
